G04 #@! TF.GenerationSoftware,KiCad,Pcbnew,6.0.11*
G04 #@! TF.CreationDate,2024-08-01T21:02:41+01:00*
G04 #@! TF.ProjectId,7Backpack,37426163-6b70-4616-936b-2e6b69636164,rev?*
G04 #@! TF.SameCoordinates,Original*
G04 #@! TF.FileFunction,Copper,L2,Bot*
G04 #@! TF.FilePolarity,Positive*
%FSLAX46Y46*%
G04 Gerber Fmt 4.6, Leading zero omitted, Abs format (unit mm)*
G04 Created by KiCad (PCBNEW 6.0.11) date 2024-08-01 21:02:41*
%MOMM*%
%LPD*%
G01*
G04 APERTURE LIST*
G04 #@! TA.AperFunction,ComponentPad*
%ADD10R,1.700000X1.700000*%
G04 #@! TD*
G04 #@! TA.AperFunction,ComponentPad*
%ADD11O,1.700000X1.700000*%
G04 #@! TD*
G04 #@! TA.AperFunction,ComponentPad*
%ADD12R,1.218000X1.218000*%
G04 #@! TD*
G04 #@! TA.AperFunction,ComponentPad*
%ADD13C,1.218000*%
G04 #@! TD*
G04 #@! TA.AperFunction,ViaPad*
%ADD14C,0.800000*%
G04 #@! TD*
G04 #@! TA.AperFunction,Conductor*
%ADD15C,1.600000*%
G04 #@! TD*
G04 #@! TA.AperFunction,Conductor*
%ADD16C,0.350000*%
G04 #@! TD*
G04 APERTURE END LIST*
D10*
X100965000Y-111760000D03*
D11*
X100965000Y-114300000D03*
X100965000Y-116840000D03*
X100965000Y-119380000D03*
X100965000Y-121920000D03*
X100965000Y-124460000D03*
D10*
X109855000Y-124460000D03*
D11*
X109855000Y-121920000D03*
X109855000Y-119380000D03*
X109855000Y-116840000D03*
X109855000Y-114300000D03*
X109855000Y-111760000D03*
D12*
X110490000Y-132428500D03*
D13*
X107950000Y-132428500D03*
X105410000Y-132428500D03*
X102870000Y-132428500D03*
X100330000Y-132428500D03*
X100330000Y-84428500D03*
X100330000Y-72428500D03*
X100330000Y-92428500D03*
X100330000Y-53688500D03*
X102870000Y-84428500D03*
X102870000Y-53688500D03*
X102870000Y-72428500D03*
X102870000Y-92428500D03*
X105410000Y-84428500D03*
X105410000Y-53688500D03*
X105410000Y-72428500D03*
X105410000Y-92428500D03*
X107950000Y-53688500D03*
X107950000Y-92428500D03*
X107950000Y-72428500D03*
X107950000Y-84428500D03*
X110490000Y-84428500D03*
X110490000Y-92428500D03*
X110490000Y-72428500D03*
X110490000Y-53688500D03*
D14*
X99695000Y-98679000D03*
X102108000Y-108712000D03*
X110998000Y-99822000D03*
X101419600Y-103195200D03*
X101568500Y-98583500D03*
X106934000Y-103886000D03*
X110935500Y-102362000D03*
X106477990Y-98349990D03*
D15*
X100965000Y-121920000D02*
X109855000Y-121920000D01*
D16*
X109855000Y-114300000D02*
X100965000Y-114300000D01*
X109855000Y-116840000D02*
X100965000Y-116840000D01*
X101419600Y-103195200D02*
X99688100Y-104926700D01*
X99688100Y-118103100D02*
X100965000Y-119380000D01*
X99688100Y-104926700D02*
X99688100Y-118103100D01*
D15*
X100330000Y-132428000D02*
X100330000Y-125095000D01*
X100330000Y-125095000D02*
X100965000Y-124460000D01*
X110490000Y-132428000D02*
X110490000Y-125095000D01*
X110490000Y-132428000D02*
X110490000Y-132428500D01*
X100330000Y-132428000D02*
X100330000Y-132428500D01*
X110490000Y-125095000D02*
X109855000Y-124460000D01*
X100965000Y-124460000D02*
X109855000Y-124460000D01*
D16*
X101631500Y-98583500D02*
X106934000Y-103886000D01*
X101568500Y-98583500D02*
X101631500Y-98583500D01*
X106477990Y-98349990D02*
X110490000Y-102362000D01*
X110490000Y-102362000D02*
X110935500Y-102362000D01*
G04 #@! TA.AperFunction,Conductor*
G36*
X111828621Y-90825002D02*
G01*
X111875114Y-90878658D01*
X111886500Y-90931000D01*
X111886500Y-101732221D01*
X111866498Y-101800342D01*
X111812842Y-101846835D01*
X111742568Y-101856939D01*
X111677988Y-101827445D01*
X111666864Y-101816531D01*
X111551175Y-101688045D01*
X111551174Y-101688044D01*
X111546753Y-101683134D01*
X111392252Y-101570882D01*
X111386224Y-101568198D01*
X111386222Y-101568197D01*
X111223819Y-101495891D01*
X111223818Y-101495891D01*
X111217788Y-101493206D01*
X111124387Y-101473353D01*
X111037444Y-101454872D01*
X111037439Y-101454872D01*
X111030987Y-101453500D01*
X110840013Y-101453500D01*
X110833561Y-101454872D01*
X110833556Y-101454872D01*
X110666200Y-101490445D01*
X110595409Y-101485043D01*
X110550908Y-101456293D01*
X107416807Y-98322192D01*
X107382781Y-98259880D01*
X107380592Y-98246267D01*
X107372222Y-98166625D01*
X107372222Y-98166623D01*
X107371532Y-98160062D01*
X107312517Y-97978434D01*
X107217030Y-97813046D01*
X107196007Y-97789697D01*
X107093665Y-97676035D01*
X107093664Y-97676034D01*
X107089243Y-97671124D01*
X106934742Y-97558872D01*
X106928714Y-97556188D01*
X106928712Y-97556187D01*
X106766309Y-97483881D01*
X106766308Y-97483881D01*
X106760278Y-97481196D01*
X106666877Y-97461343D01*
X106579934Y-97442862D01*
X106579929Y-97442862D01*
X106573477Y-97441490D01*
X106382503Y-97441490D01*
X106376051Y-97442862D01*
X106376046Y-97442862D01*
X106289103Y-97461343D01*
X106195702Y-97481196D01*
X106189672Y-97483881D01*
X106189671Y-97483881D01*
X106027268Y-97556187D01*
X106027266Y-97556188D01*
X106021238Y-97558872D01*
X105866737Y-97671124D01*
X105862316Y-97676034D01*
X105862315Y-97676035D01*
X105759974Y-97789697D01*
X105738950Y-97813046D01*
X105643463Y-97978434D01*
X105584448Y-98160062D01*
X105583758Y-98166623D01*
X105583758Y-98166625D01*
X105573957Y-98259880D01*
X105564486Y-98349990D01*
X105584448Y-98539918D01*
X105643463Y-98721546D01*
X105738950Y-98886934D01*
X105866737Y-99028856D01*
X105965833Y-99100854D01*
X105992797Y-99120444D01*
X106021238Y-99141108D01*
X106027266Y-99143792D01*
X106027268Y-99143793D01*
X106189671Y-99216099D01*
X106195702Y-99218784D01*
X106313477Y-99243818D01*
X106376047Y-99257118D01*
X106376050Y-99257118D01*
X106380772Y-99258122D01*
X106382503Y-99258490D01*
X106382436Y-99258807D01*
X106444771Y-99284452D01*
X106455040Y-99293655D01*
X109986844Y-102825459D01*
X109992698Y-102831724D01*
X110029290Y-102873670D01*
X110079655Y-102909066D01*
X110084920Y-102912978D01*
X110133328Y-102950935D01*
X110140252Y-102954061D01*
X110144561Y-102956671D01*
X110153976Y-102962042D01*
X110158424Y-102964427D01*
X110164639Y-102968795D01*
X110221957Y-102991142D01*
X110228029Y-102993694D01*
X110284105Y-103019014D01*
X110285312Y-103019238D01*
X110323950Y-103041275D01*
X110324247Y-103040866D01*
X110478748Y-103153118D01*
X110484776Y-103155802D01*
X110484778Y-103155803D01*
X110647181Y-103228109D01*
X110653212Y-103230794D01*
X110746612Y-103250647D01*
X110833556Y-103269128D01*
X110833561Y-103269128D01*
X110840013Y-103270500D01*
X111030987Y-103270500D01*
X111037439Y-103269128D01*
X111037444Y-103269128D01*
X111124387Y-103250647D01*
X111217788Y-103230794D01*
X111223819Y-103228109D01*
X111386222Y-103155803D01*
X111386224Y-103155802D01*
X111392252Y-103153118D01*
X111546753Y-103040866D01*
X111560410Y-103025699D01*
X111666864Y-102907469D01*
X111727310Y-102870229D01*
X111798293Y-102871581D01*
X111857278Y-102911094D01*
X111885536Y-102976225D01*
X111886500Y-102991779D01*
X111886500Y-114174000D01*
X111866498Y-114242121D01*
X111812842Y-114288614D01*
X111760500Y-114300000D01*
X111334222Y-114300000D01*
X111266101Y-114279998D01*
X111219608Y-114226342D01*
X111208646Y-114184324D01*
X111200276Y-114082522D01*
X111199852Y-114077361D01*
X111145431Y-113860702D01*
X111056354Y-113655840D01*
X110935014Y-113468277D01*
X110784670Y-113303051D01*
X110780619Y-113299852D01*
X110780615Y-113299848D01*
X110613414Y-113167800D01*
X110613410Y-113167798D01*
X110609359Y-113164598D01*
X110567569Y-113141529D01*
X110517598Y-113091097D01*
X110502826Y-113021654D01*
X110527942Y-112955248D01*
X110555294Y-112928641D01*
X110730328Y-112803792D01*
X110738200Y-112797139D01*
X110889052Y-112646812D01*
X110895730Y-112638965D01*
X111020003Y-112466020D01*
X111025313Y-112457183D01*
X111119670Y-112266267D01*
X111123469Y-112256672D01*
X111185377Y-112052910D01*
X111187555Y-112042837D01*
X111188986Y-112031962D01*
X111186775Y-112017778D01*
X111173617Y-112014000D01*
X108538225Y-112014000D01*
X108524694Y-112017973D01*
X108523257Y-112027966D01*
X108553565Y-112162446D01*
X108556645Y-112172275D01*
X108636770Y-112369603D01*
X108641413Y-112378794D01*
X108752694Y-112560388D01*
X108758777Y-112568699D01*
X108898213Y-112729667D01*
X108905580Y-112736883D01*
X109069434Y-112872916D01*
X109077881Y-112878831D01*
X109146969Y-112919203D01*
X109195693Y-112970842D01*
X109208764Y-113040625D01*
X109182033Y-113106396D01*
X109141584Y-113139752D01*
X109128607Y-113146507D01*
X109124474Y-113149610D01*
X109124471Y-113149612D01*
X108954100Y-113277530D01*
X108949965Y-113280635D01*
X108795629Y-113442138D01*
X108792715Y-113446410D01*
X108792714Y-113446411D01*
X108714203Y-113561504D01*
X108659292Y-113606507D01*
X108610115Y-113616500D01*
X102209459Y-113616500D01*
X102141338Y-113596498D01*
X102103667Y-113558940D01*
X102047822Y-113472617D01*
X102047820Y-113472614D01*
X102045014Y-113468277D01*
X102041538Y-113464457D01*
X102041533Y-113464450D01*
X101897435Y-113306088D01*
X101866383Y-113242242D01*
X101874779Y-113171744D01*
X101919956Y-113116976D01*
X101946400Y-113103307D01*
X102053052Y-113063325D01*
X102068649Y-113054786D01*
X102170724Y-112978285D01*
X102183285Y-112965724D01*
X102259786Y-112863649D01*
X102268324Y-112848054D01*
X102313478Y-112727606D01*
X102317105Y-112712351D01*
X102322631Y-112661486D01*
X102323000Y-112654672D01*
X102323000Y-112032115D01*
X102318525Y-112016876D01*
X102317135Y-112015671D01*
X102309452Y-112014000D01*
X100837000Y-112014000D01*
X100768879Y-111993998D01*
X100722386Y-111940342D01*
X100711000Y-111888000D01*
X100711000Y-111487885D01*
X101219000Y-111487885D01*
X101223475Y-111503124D01*
X101224865Y-111504329D01*
X101232548Y-111506000D01*
X102304884Y-111506000D01*
X102320123Y-111501525D01*
X102321328Y-111500135D01*
X102322623Y-111494183D01*
X108519389Y-111494183D01*
X108520912Y-111502607D01*
X108533292Y-111506000D01*
X109582885Y-111506000D01*
X109598124Y-111501525D01*
X109599329Y-111500135D01*
X109601000Y-111492452D01*
X109601000Y-111487885D01*
X110109000Y-111487885D01*
X110113475Y-111503124D01*
X110114865Y-111504329D01*
X110122548Y-111506000D01*
X111173344Y-111506000D01*
X111186875Y-111502027D01*
X111188180Y-111492947D01*
X111146214Y-111325875D01*
X111142894Y-111316124D01*
X111057972Y-111120814D01*
X111053105Y-111111739D01*
X110937426Y-110932926D01*
X110931136Y-110924757D01*
X110787806Y-110767240D01*
X110780273Y-110760215D01*
X110613139Y-110628222D01*
X110604552Y-110622517D01*
X110418117Y-110519599D01*
X110408705Y-110515369D01*
X110207959Y-110444280D01*
X110197988Y-110441646D01*
X110126837Y-110428972D01*
X110113540Y-110430432D01*
X110109000Y-110444989D01*
X110109000Y-111487885D01*
X109601000Y-111487885D01*
X109601000Y-110443102D01*
X109597082Y-110429758D01*
X109582806Y-110427771D01*
X109544324Y-110433660D01*
X109534288Y-110436051D01*
X109331868Y-110502212D01*
X109322359Y-110506209D01*
X109133463Y-110604542D01*
X109124738Y-110610036D01*
X108954433Y-110737905D01*
X108946726Y-110744748D01*
X108799590Y-110898717D01*
X108793104Y-110906727D01*
X108673098Y-111082649D01*
X108668000Y-111091623D01*
X108578338Y-111284783D01*
X108574775Y-111294470D01*
X108519389Y-111494183D01*
X102322623Y-111494183D01*
X102322999Y-111492452D01*
X102322999Y-110865331D01*
X102322629Y-110858510D01*
X102317105Y-110807648D01*
X102313479Y-110792396D01*
X102268324Y-110671946D01*
X102259786Y-110656351D01*
X102183285Y-110554276D01*
X102170724Y-110541715D01*
X102068649Y-110465214D01*
X102053054Y-110456676D01*
X101932606Y-110411522D01*
X101917351Y-110407895D01*
X101866486Y-110402369D01*
X101859672Y-110402000D01*
X101237115Y-110402000D01*
X101221876Y-110406475D01*
X101220671Y-110407865D01*
X101219000Y-110415548D01*
X101219000Y-111487885D01*
X100711000Y-111487885D01*
X100711000Y-110420116D01*
X100706525Y-110404877D01*
X100705135Y-110403672D01*
X100697452Y-110402001D01*
X100497600Y-110402001D01*
X100429479Y-110381999D01*
X100382986Y-110328343D01*
X100371600Y-110276001D01*
X100371600Y-105262005D01*
X100391602Y-105193884D01*
X100408505Y-105172910D01*
X101442550Y-104138865D01*
X101504862Y-104104839D01*
X101511946Y-104103700D01*
X101515087Y-104103700D01*
X101521540Y-104102328D01*
X101521543Y-104102328D01*
X101584113Y-104089028D01*
X101701888Y-104063994D01*
X101707919Y-104061309D01*
X101870322Y-103989003D01*
X101870324Y-103989002D01*
X101876352Y-103986318D01*
X102030853Y-103874066D01*
X102158640Y-103732144D01*
X102254127Y-103566756D01*
X102313142Y-103385128D01*
X102333104Y-103195200D01*
X102322278Y-103092197D01*
X102313832Y-103011835D01*
X102313832Y-103011833D01*
X102313142Y-103005272D01*
X102254127Y-102823644D01*
X102158640Y-102658256D01*
X102030853Y-102516334D01*
X101876352Y-102404082D01*
X101870324Y-102401398D01*
X101870322Y-102401397D01*
X101707919Y-102329091D01*
X101707918Y-102329091D01*
X101701888Y-102326406D01*
X101608487Y-102306553D01*
X101521544Y-102288072D01*
X101521539Y-102288072D01*
X101515087Y-102286700D01*
X101324113Y-102286700D01*
X101317661Y-102288072D01*
X101317656Y-102288072D01*
X101230712Y-102306553D01*
X101137312Y-102326406D01*
X101131282Y-102329091D01*
X101131281Y-102329091D01*
X100968878Y-102401397D01*
X100968876Y-102401398D01*
X100962848Y-102404082D01*
X100808347Y-102516334D01*
X100680560Y-102658256D01*
X100585073Y-102823644D01*
X100526058Y-103005272D01*
X100525368Y-103011833D01*
X100525368Y-103011835D01*
X100516998Y-103091477D01*
X100489985Y-103157134D01*
X100480783Y-103167402D01*
X99224641Y-104423544D01*
X99218376Y-104429398D01*
X99176430Y-104465990D01*
X99162586Y-104485689D01*
X99107054Y-104529919D01*
X99036422Y-104537105D01*
X98973117Y-104504965D01*
X98937238Y-104443701D01*
X98933500Y-104413237D01*
X98933500Y-98583500D01*
X100654996Y-98583500D01*
X100655686Y-98590065D01*
X100670107Y-98727269D01*
X100674958Y-98773428D01*
X100733973Y-98955056D01*
X100829460Y-99120444D01*
X100833878Y-99125351D01*
X100833879Y-99125352D01*
X100952825Y-99257455D01*
X100957247Y-99262366D01*
X101111748Y-99374618D01*
X101117776Y-99377302D01*
X101117778Y-99377303D01*
X101280181Y-99449609D01*
X101286212Y-99452294D01*
X101379613Y-99472147D01*
X101466556Y-99490628D01*
X101466561Y-99490628D01*
X101473013Y-99492000D01*
X101521195Y-99492000D01*
X101589316Y-99512002D01*
X101610290Y-99528905D01*
X105995183Y-103913798D01*
X106029209Y-103976110D01*
X106031398Y-103989723D01*
X106038922Y-104061309D01*
X106040458Y-104075928D01*
X106099473Y-104257556D01*
X106194960Y-104422944D01*
X106199378Y-104427851D01*
X106199379Y-104427852D01*
X106297751Y-104537105D01*
X106322747Y-104564866D01*
X106477248Y-104677118D01*
X106483276Y-104679802D01*
X106483278Y-104679803D01*
X106575371Y-104720805D01*
X106651712Y-104754794D01*
X106745112Y-104774647D01*
X106832056Y-104793128D01*
X106832061Y-104793128D01*
X106838513Y-104794500D01*
X107029487Y-104794500D01*
X107035939Y-104793128D01*
X107035944Y-104793128D01*
X107122888Y-104774647D01*
X107216288Y-104754794D01*
X107292629Y-104720805D01*
X107384722Y-104679803D01*
X107384724Y-104679802D01*
X107390752Y-104677118D01*
X107545253Y-104564866D01*
X107570249Y-104537105D01*
X107668621Y-104427852D01*
X107668622Y-104427851D01*
X107673040Y-104422944D01*
X107768527Y-104257556D01*
X107827542Y-104075928D01*
X107828797Y-104063994D01*
X107846814Y-103892565D01*
X107847504Y-103886000D01*
X107827542Y-103696072D01*
X107768527Y-103514444D01*
X107673040Y-103349056D01*
X107545253Y-103207134D01*
X107390752Y-103094882D01*
X107384724Y-103092198D01*
X107384722Y-103092197D01*
X107222319Y-103019891D01*
X107222318Y-103019891D01*
X107216288Y-103017206D01*
X107093667Y-102991142D01*
X107035943Y-102978872D01*
X107035940Y-102978872D01*
X107029487Y-102977500D01*
X107029554Y-102977183D01*
X106967219Y-102951538D01*
X106956949Y-102942335D01*
X102499918Y-98485303D01*
X102465892Y-98422991D01*
X102463703Y-98409376D01*
X102462732Y-98400136D01*
X102462732Y-98400135D01*
X102462042Y-98393572D01*
X102403027Y-98211944D01*
X102307540Y-98046556D01*
X102179753Y-97904634D01*
X102061564Y-97818764D01*
X102030594Y-97796263D01*
X102030593Y-97796262D01*
X102025252Y-97792382D01*
X102019224Y-97789698D01*
X102019222Y-97789697D01*
X101856819Y-97717391D01*
X101856818Y-97717391D01*
X101850788Y-97714706D01*
X101757387Y-97694853D01*
X101670444Y-97676372D01*
X101670439Y-97676372D01*
X101663987Y-97675000D01*
X101473013Y-97675000D01*
X101466561Y-97676372D01*
X101466556Y-97676372D01*
X101379613Y-97694853D01*
X101286212Y-97714706D01*
X101280182Y-97717391D01*
X101280181Y-97717391D01*
X101117778Y-97789697D01*
X101117776Y-97789698D01*
X101111748Y-97792382D01*
X101106407Y-97796262D01*
X101106406Y-97796263D01*
X101075436Y-97818764D01*
X100957247Y-97904634D01*
X100829460Y-98046556D01*
X100733973Y-98211944D01*
X100674958Y-98393572D01*
X100654996Y-98583500D01*
X98933500Y-98583500D01*
X98933500Y-92399122D01*
X99208098Y-92399122D01*
X99221530Y-92604064D01*
X99222952Y-92609662D01*
X99222952Y-92609664D01*
X99270665Y-92797532D01*
X99272086Y-92803127D01*
X99358071Y-92989643D01*
X99476606Y-93157367D01*
X99623722Y-93300681D01*
X99628518Y-93303886D01*
X99628521Y-93303888D01*
X99764975Y-93395063D01*
X99794491Y-93414785D01*
X99799794Y-93417063D01*
X99799797Y-93417065D01*
X99977887Y-93493578D01*
X99983194Y-93495858D01*
X100080693Y-93517920D01*
X100177876Y-93539911D01*
X100177879Y-93539911D01*
X100183512Y-93541186D01*
X100189283Y-93541413D01*
X100189285Y-93541413D01*
X100252647Y-93543902D01*
X100388736Y-93549249D01*
X100508384Y-93531901D01*
X100586271Y-93520608D01*
X100586275Y-93520607D01*
X100591993Y-93519778D01*
X100597465Y-93517920D01*
X100597467Y-93517920D01*
X100781011Y-93455615D01*
X100781013Y-93455614D01*
X100786475Y-93453760D01*
X100965670Y-93353406D01*
X101123577Y-93222077D01*
X101254906Y-93064170D01*
X101355260Y-92884975D01*
X101421278Y-92690493D01*
X101450749Y-92487236D01*
X101452287Y-92428500D01*
X101449588Y-92399122D01*
X101748098Y-92399122D01*
X101761530Y-92604064D01*
X101762952Y-92609662D01*
X101762952Y-92609664D01*
X101810665Y-92797532D01*
X101812086Y-92803127D01*
X101898071Y-92989643D01*
X102016606Y-93157367D01*
X102163722Y-93300681D01*
X102168518Y-93303886D01*
X102168521Y-93303888D01*
X102304975Y-93395063D01*
X102334491Y-93414785D01*
X102339794Y-93417063D01*
X102339797Y-93417065D01*
X102517887Y-93493578D01*
X102523194Y-93495858D01*
X102620693Y-93517920D01*
X102717876Y-93539911D01*
X102717879Y-93539911D01*
X102723512Y-93541186D01*
X102729283Y-93541413D01*
X102729285Y-93541413D01*
X102792647Y-93543902D01*
X102928736Y-93549249D01*
X103048384Y-93531901D01*
X103126271Y-93520608D01*
X103126275Y-93520607D01*
X103131993Y-93519778D01*
X103137465Y-93517920D01*
X103137467Y-93517920D01*
X103321011Y-93455615D01*
X103321013Y-93455614D01*
X103326475Y-93453760D01*
X103505670Y-93353406D01*
X103663577Y-93222077D01*
X103794906Y-93064170D01*
X103895260Y-92884975D01*
X103961278Y-92690493D01*
X103990749Y-92487236D01*
X103992287Y-92428500D01*
X103989588Y-92399122D01*
X104288098Y-92399122D01*
X104301530Y-92604064D01*
X104302952Y-92609662D01*
X104302952Y-92609664D01*
X104350665Y-92797532D01*
X104352086Y-92803127D01*
X104438071Y-92989643D01*
X104556606Y-93157367D01*
X104703722Y-93300681D01*
X104708518Y-93303886D01*
X104708521Y-93303888D01*
X104844975Y-93395063D01*
X104874491Y-93414785D01*
X104879794Y-93417063D01*
X104879797Y-93417065D01*
X105057887Y-93493578D01*
X105063194Y-93495858D01*
X105160693Y-93517920D01*
X105257876Y-93539911D01*
X105257879Y-93539911D01*
X105263512Y-93541186D01*
X105269283Y-93541413D01*
X105269285Y-93541413D01*
X105332647Y-93543902D01*
X105468736Y-93549249D01*
X105588384Y-93531901D01*
X105666271Y-93520608D01*
X105666275Y-93520607D01*
X105671993Y-93519778D01*
X105677465Y-93517920D01*
X105677467Y-93517920D01*
X105861011Y-93455615D01*
X105861013Y-93455614D01*
X105866475Y-93453760D01*
X106045670Y-93353406D01*
X106203577Y-93222077D01*
X106334906Y-93064170D01*
X106435260Y-92884975D01*
X106501278Y-92690493D01*
X106530749Y-92487236D01*
X106532287Y-92428500D01*
X106529588Y-92399122D01*
X106828098Y-92399122D01*
X106841530Y-92604064D01*
X106842952Y-92609662D01*
X106842952Y-92609664D01*
X106890665Y-92797532D01*
X106892086Y-92803127D01*
X106978071Y-92989643D01*
X107096606Y-93157367D01*
X107243722Y-93300681D01*
X107248518Y-93303886D01*
X107248521Y-93303888D01*
X107384975Y-93395063D01*
X107414491Y-93414785D01*
X107419794Y-93417063D01*
X107419797Y-93417065D01*
X107597887Y-93493578D01*
X107603194Y-93495858D01*
X107700693Y-93517920D01*
X107797876Y-93539911D01*
X107797879Y-93539911D01*
X107803512Y-93541186D01*
X107809283Y-93541413D01*
X107809285Y-93541413D01*
X107872647Y-93543902D01*
X108008736Y-93549249D01*
X108128384Y-93531901D01*
X108206271Y-93520608D01*
X108206275Y-93520607D01*
X108211993Y-93519778D01*
X108217465Y-93517920D01*
X108217467Y-93517920D01*
X108401011Y-93455615D01*
X108401013Y-93455614D01*
X108406475Y-93453760D01*
X108585670Y-93353406D01*
X108743577Y-93222077D01*
X108874906Y-93064170D01*
X108975260Y-92884975D01*
X109041278Y-92690493D01*
X109070749Y-92487236D01*
X109072287Y-92428500D01*
X109069588Y-92399122D01*
X109368098Y-92399122D01*
X109381530Y-92604064D01*
X109382952Y-92609662D01*
X109382952Y-92609664D01*
X109430665Y-92797532D01*
X109432086Y-92803127D01*
X109518071Y-92989643D01*
X109636606Y-93157367D01*
X109783722Y-93300681D01*
X109788518Y-93303886D01*
X109788521Y-93303888D01*
X109924975Y-93395063D01*
X109954491Y-93414785D01*
X109959794Y-93417063D01*
X109959797Y-93417065D01*
X110137887Y-93493578D01*
X110143194Y-93495858D01*
X110240693Y-93517920D01*
X110337876Y-93539911D01*
X110337879Y-93539911D01*
X110343512Y-93541186D01*
X110349283Y-93541413D01*
X110349285Y-93541413D01*
X110412647Y-93543902D01*
X110548736Y-93549249D01*
X110668384Y-93531901D01*
X110746271Y-93520608D01*
X110746275Y-93520607D01*
X110751993Y-93519778D01*
X110757465Y-93517920D01*
X110757467Y-93517920D01*
X110941011Y-93455615D01*
X110941013Y-93455614D01*
X110946475Y-93453760D01*
X111125670Y-93353406D01*
X111283577Y-93222077D01*
X111414906Y-93064170D01*
X111515260Y-92884975D01*
X111581278Y-92690493D01*
X111610749Y-92487236D01*
X111612287Y-92428500D01*
X111593494Y-92223979D01*
X111537745Y-92026308D01*
X111446907Y-91842107D01*
X111324022Y-91677543D01*
X111319786Y-91673627D01*
X111177446Y-91542050D01*
X111177444Y-91542048D01*
X111173205Y-91538130D01*
X110999508Y-91428535D01*
X110994148Y-91426397D01*
X110994145Y-91426395D01*
X110814111Y-91354569D01*
X110808747Y-91352429D01*
X110803087Y-91351303D01*
X110803083Y-91351302D01*
X110612978Y-91313488D01*
X110612976Y-91313488D01*
X110607311Y-91312361D01*
X110601536Y-91312285D01*
X110601532Y-91312285D01*
X110499029Y-91310944D01*
X110401946Y-91309673D01*
X110396249Y-91310652D01*
X110396248Y-91310652D01*
X110205228Y-91343475D01*
X110199531Y-91344454D01*
X110006843Y-91415540D01*
X110001882Y-91418492D01*
X110001881Y-91418492D01*
X109835304Y-91517595D01*
X109835301Y-91517597D01*
X109830336Y-91520551D01*
X109825996Y-91524357D01*
X109825992Y-91524360D01*
X109805821Y-91542050D01*
X109675922Y-91655969D01*
X109672347Y-91660504D01*
X109672346Y-91660505D01*
X109658914Y-91677543D01*
X109548771Y-91817259D01*
X109546082Y-91822370D01*
X109546080Y-91822373D01*
X109532972Y-91847288D01*
X109453142Y-91999019D01*
X109392238Y-92195163D01*
X109368098Y-92399122D01*
X109069588Y-92399122D01*
X109053494Y-92223979D01*
X108997745Y-92026308D01*
X108906907Y-91842107D01*
X108784022Y-91677543D01*
X108779786Y-91673627D01*
X108637446Y-91542050D01*
X108637444Y-91542048D01*
X108633205Y-91538130D01*
X108459508Y-91428535D01*
X108454148Y-91426397D01*
X108454145Y-91426395D01*
X108274111Y-91354569D01*
X108268747Y-91352429D01*
X108263087Y-91351303D01*
X108263083Y-91351302D01*
X108072978Y-91313488D01*
X108072976Y-91313488D01*
X108067311Y-91312361D01*
X108061536Y-91312285D01*
X108061532Y-91312285D01*
X107959029Y-91310944D01*
X107861946Y-91309673D01*
X107856249Y-91310652D01*
X107856248Y-91310652D01*
X107665228Y-91343475D01*
X107659531Y-91344454D01*
X107466843Y-91415540D01*
X107461882Y-91418492D01*
X107461881Y-91418492D01*
X107295304Y-91517595D01*
X107295301Y-91517597D01*
X107290336Y-91520551D01*
X107285996Y-91524357D01*
X107285992Y-91524360D01*
X107265821Y-91542050D01*
X107135922Y-91655969D01*
X107132347Y-91660504D01*
X107132346Y-91660505D01*
X107118914Y-91677543D01*
X107008771Y-91817259D01*
X107006082Y-91822370D01*
X107006080Y-91822373D01*
X106992972Y-91847288D01*
X106913142Y-91999019D01*
X106852238Y-92195163D01*
X106828098Y-92399122D01*
X106529588Y-92399122D01*
X106513494Y-92223979D01*
X106457745Y-92026308D01*
X106366907Y-91842107D01*
X106244022Y-91677543D01*
X106239786Y-91673627D01*
X106097446Y-91542050D01*
X106097444Y-91542048D01*
X106093205Y-91538130D01*
X105919508Y-91428535D01*
X105914148Y-91426397D01*
X105914145Y-91426395D01*
X105734111Y-91354569D01*
X105728747Y-91352429D01*
X105723087Y-91351303D01*
X105723083Y-91351302D01*
X105532978Y-91313488D01*
X105532976Y-91313488D01*
X105527311Y-91312361D01*
X105521536Y-91312285D01*
X105521532Y-91312285D01*
X105419029Y-91310944D01*
X105321946Y-91309673D01*
X105316249Y-91310652D01*
X105316248Y-91310652D01*
X105125228Y-91343475D01*
X105119531Y-91344454D01*
X104926843Y-91415540D01*
X104921882Y-91418492D01*
X104921881Y-91418492D01*
X104755304Y-91517595D01*
X104755301Y-91517597D01*
X104750336Y-91520551D01*
X104745996Y-91524357D01*
X104745992Y-91524360D01*
X104725821Y-91542050D01*
X104595922Y-91655969D01*
X104592347Y-91660504D01*
X104592346Y-91660505D01*
X104578914Y-91677543D01*
X104468771Y-91817259D01*
X104466082Y-91822370D01*
X104466080Y-91822373D01*
X104452972Y-91847288D01*
X104373142Y-91999019D01*
X104312238Y-92195163D01*
X104288098Y-92399122D01*
X103989588Y-92399122D01*
X103973494Y-92223979D01*
X103917745Y-92026308D01*
X103826907Y-91842107D01*
X103704022Y-91677543D01*
X103699786Y-91673627D01*
X103557446Y-91542050D01*
X103557444Y-91542048D01*
X103553205Y-91538130D01*
X103379508Y-91428535D01*
X103374148Y-91426397D01*
X103374145Y-91426395D01*
X103194111Y-91354569D01*
X103188747Y-91352429D01*
X103183087Y-91351303D01*
X103183083Y-91351302D01*
X102992978Y-91313488D01*
X102992976Y-91313488D01*
X102987311Y-91312361D01*
X102981536Y-91312285D01*
X102981532Y-91312285D01*
X102879029Y-91310944D01*
X102781946Y-91309673D01*
X102776249Y-91310652D01*
X102776248Y-91310652D01*
X102585228Y-91343475D01*
X102579531Y-91344454D01*
X102386843Y-91415540D01*
X102381882Y-91418492D01*
X102381881Y-91418492D01*
X102215304Y-91517595D01*
X102215301Y-91517597D01*
X102210336Y-91520551D01*
X102205996Y-91524357D01*
X102205992Y-91524360D01*
X102185821Y-91542050D01*
X102055922Y-91655969D01*
X102052347Y-91660504D01*
X102052346Y-91660505D01*
X102038914Y-91677543D01*
X101928771Y-91817259D01*
X101926082Y-91822370D01*
X101926080Y-91822373D01*
X101912972Y-91847288D01*
X101833142Y-91999019D01*
X101772238Y-92195163D01*
X101748098Y-92399122D01*
X101449588Y-92399122D01*
X101433494Y-92223979D01*
X101377745Y-92026308D01*
X101286907Y-91842107D01*
X101164022Y-91677543D01*
X101159786Y-91673627D01*
X101017446Y-91542050D01*
X101017444Y-91542048D01*
X101013205Y-91538130D01*
X100839508Y-91428535D01*
X100834148Y-91426397D01*
X100834145Y-91426395D01*
X100654111Y-91354569D01*
X100648747Y-91352429D01*
X100643087Y-91351303D01*
X100643083Y-91351302D01*
X100452978Y-91313488D01*
X100452976Y-91313488D01*
X100447311Y-91312361D01*
X100441536Y-91312285D01*
X100441532Y-91312285D01*
X100339029Y-91310944D01*
X100241946Y-91309673D01*
X100236249Y-91310652D01*
X100236248Y-91310652D01*
X100045228Y-91343475D01*
X100039531Y-91344454D01*
X99846843Y-91415540D01*
X99841882Y-91418492D01*
X99841881Y-91418492D01*
X99675304Y-91517595D01*
X99675301Y-91517597D01*
X99670336Y-91520551D01*
X99665996Y-91524357D01*
X99665992Y-91524360D01*
X99645821Y-91542050D01*
X99515922Y-91655969D01*
X99512347Y-91660504D01*
X99512346Y-91660505D01*
X99498914Y-91677543D01*
X99388771Y-91817259D01*
X99386082Y-91822370D01*
X99386080Y-91822373D01*
X99372972Y-91847288D01*
X99293142Y-91999019D01*
X99232238Y-92195163D01*
X99208098Y-92399122D01*
X98933500Y-92399122D01*
X98933500Y-90931000D01*
X98953502Y-90862879D01*
X99007158Y-90816386D01*
X99059500Y-90805000D01*
X111760500Y-90805000D01*
X111828621Y-90825002D01*
G37*
G04 #@! TD.AperFunction*
M02*
