M48
; DRILL file {KiCad 6.0.11} date Fri 26 Jul 2024 09:28:21 PM IST
; FORMAT={-:-/ absolute / metric / decimal}
; #@! TF.CreationDate,2024-07-26T21:28:21+01:00
; #@! TF.GenerationSoftware,Kicad,Pcbnew,6.0.11
; #@! TF.FileFunction,Plated,1,2,PTH
FMAT,2
METRIC
; #@! TA.AperFunction,Plated,PTH,ViaDrill
T1C0.400
; #@! TA.AperFunction,Plated,PTH,ComponentDrill
T2C0.710
; #@! TA.AperFunction,Plated,PTH,ComponentDrill
T3C1.000
%
G90
G05
T1
X99.695Y-99.06
X101.962Y-101.962
X102.235Y-106.045
X103.505Y-99.695
X106.045Y-99.06
X106.856Y-103.046
X107.95Y-100.965
X111.125Y-99.695
T2
X100.33Y-53.688
X100.33Y-72.428
X100.33Y-84.428
X100.33Y-92.428
X100.33Y-132.428
X102.87Y-53.688
X102.87Y-72.428
X102.87Y-84.428
X102.87Y-92.428
X102.87Y-132.428
X105.41Y-53.688
X105.41Y-72.428
X105.41Y-84.428
X105.41Y-92.428
X105.41Y-132.428
X107.95Y-53.688
X107.95Y-72.428
X107.95Y-84.428
X107.95Y-92.428
X107.95Y-132.428
X110.49Y-53.688
X110.49Y-72.428
X110.49Y-84.428
X110.49Y-92.428
X110.49Y-132.428
T3
X100.965Y-110.49
X100.965Y-113.03
X100.965Y-115.57
X100.965Y-118.11
X100.965Y-120.65
X100.965Y-123.19
X109.855Y-110.49
X109.855Y-113.03
X109.855Y-115.57
X109.855Y-118.11
X109.855Y-120.65
X109.855Y-123.19
T0
M30
