%TF.GenerationSoftware,KiCad,Pcbnew,6.0.11*%
%TF.CreationDate,2024-08-01T21:03:11+01:00*%
%TF.ProjectId,7Backpack,37426163-6b70-4616-936b-2e6b69636164,rev?*%
%TF.SameCoordinates,Original*%
%TF.FileFunction,Drillmap*%
%TF.FilePolarity,Positive*%
%FSLAX45Y45*%
G04 Gerber Fmt 4.5, Leading zero omitted, Abs format (unit mm)*
G04 Created by KiCad (PCBNEW 6.0.11) date 2024-08-01 21:03:11*
%MOMM*%
%LPD*%
G01*
G04 APERTURE LIST*
%ADD10C,0.100000*%
%ADD11C,0.200000*%
%ADD12C,0.040000*%
%ADD13C,0.071000*%
G04 APERTURE END LIST*
D10*
X9842500Y-5143500D02*
X11239500Y-5143500D01*
X11239500Y-5143500D02*
X11239500Y-13462000D01*
X11239500Y-13462000D02*
X9842500Y-13462000D01*
X9842500Y-13462000D02*
X9842500Y-5143500D01*
X10211600Y-8153400D02*
G75*
G03*
X10211600Y-8153400I-50000J0D01*
G01*
X10464800Y-8153400D02*
G75*
G03*
X10464800Y-8153400I-50000J0D01*
G01*
X10463200Y-8966200D02*
G75*
G03*
X10463200Y-8966200I-50000J0D01*
G01*
X10464800Y-6959600D02*
G75*
G03*
X10464800Y-6959600I-50000J0D01*
G01*
X11201400Y-6959600D02*
G75*
G03*
X11201400Y-6959600I-50000J0D01*
G01*
X9983000Y-8153400D02*
G75*
G03*
X9983000Y-8153400I-50000J0D01*
G01*
X10718800Y-6959600D02*
G75*
G03*
X10718800Y-6959600I-50000J0D01*
G01*
X11201400Y-8153400D02*
G75*
G03*
X11201400Y-8153400I-50000J0D01*
G01*
X10718800Y-8153400D02*
G75*
G03*
X10718800Y-8153400I-50000J0D01*
G01*
X10717200Y-8966200D02*
G75*
G03*
X10717200Y-8966200I-50000J0D01*
G01*
X10972800Y-6959600D02*
G75*
G03*
X10972800Y-6959600I-50000J0D01*
G01*
X10972800Y-8153400D02*
G75*
G03*
X10972800Y-8153400I-50000J0D01*
G01*
X10210000Y-8966200D02*
G75*
G03*
X10210000Y-8966200I-50000J0D01*
G01*
X11199800Y-8966200D02*
G75*
G03*
X11199800Y-8966200I-50000J0D01*
G01*
X9981400Y-8966200D02*
G75*
G03*
X9981400Y-8966200I-50000J0D01*
G01*
X10211600Y-6959600D02*
G75*
G03*
X10211600Y-6959600I-50000J0D01*
G01*
X10971200Y-8966200D02*
G75*
G03*
X10971200Y-8966200I-50000J0D01*
G01*
X9983000Y-6959600D02*
G75*
G03*
X9983000Y-6959600I-50000J0D01*
G01*
D11*
D12*
X9949500Y-9847900D02*
X9989500Y-9887900D01*
X9989500Y-9847900D02*
X9949500Y-9887900D01*
X10121960Y-10299520D02*
X10161960Y-10339520D01*
X10161960Y-10299520D02*
X10121960Y-10339520D01*
X10136850Y-9838350D02*
X10176850Y-9878350D01*
X10176850Y-9838350D02*
X10136850Y-9878350D01*
X10190800Y-10851200D02*
X10230800Y-10891200D01*
X10230800Y-10851200D02*
X10190800Y-10891200D01*
X10627799Y-9814999D02*
X10667799Y-9854999D01*
X10667799Y-9814999D02*
X10627799Y-9854999D01*
X10673400Y-10368600D02*
X10713400Y-10408600D01*
X10713400Y-10368600D02*
X10673400Y-10408600D01*
X11073550Y-10216200D02*
X11113550Y-10256200D01*
X11113550Y-10216200D02*
X11073550Y-10256200D01*
X11079800Y-9962200D02*
X11119800Y-10002200D01*
X11119800Y-9962200D02*
X11079800Y-10002200D01*
D13*
X10068500Y-5368850D02*
G75*
G03*
X10068500Y-5368850I-35500J0D01*
G01*
X10068500Y-7242850D02*
G75*
G03*
X10068500Y-7242850I-35500J0D01*
G01*
X10068500Y-8442850D02*
G75*
G03*
X10068500Y-8442850I-35500J0D01*
G01*
X10068500Y-9242850D02*
G75*
G03*
X10068500Y-9242850I-35500J0D01*
G01*
X10068500Y-13242850D02*
G75*
G03*
X10068500Y-13242850I-35500J0D01*
G01*
X10322500Y-5368850D02*
G75*
G03*
X10322500Y-5368850I-35500J0D01*
G01*
X10322500Y-7242850D02*
G75*
G03*
X10322500Y-7242850I-35500J0D01*
G01*
X10322500Y-8442850D02*
G75*
G03*
X10322500Y-8442850I-35500J0D01*
G01*
X10322500Y-9242850D02*
G75*
G03*
X10322500Y-9242850I-35500J0D01*
G01*
X10322500Y-13242850D02*
G75*
G03*
X10322500Y-13242850I-35500J0D01*
G01*
X10576500Y-5368850D02*
G75*
G03*
X10576500Y-5368850I-35500J0D01*
G01*
X10576500Y-7242850D02*
G75*
G03*
X10576500Y-7242850I-35500J0D01*
G01*
X10576500Y-8442850D02*
G75*
G03*
X10576500Y-8442850I-35500J0D01*
G01*
X10576500Y-9242850D02*
G75*
G03*
X10576500Y-9242850I-35500J0D01*
G01*
X10576500Y-13242850D02*
G75*
G03*
X10576500Y-13242850I-35500J0D01*
G01*
X10830500Y-5368850D02*
G75*
G03*
X10830500Y-5368850I-35500J0D01*
G01*
X10830500Y-7242850D02*
G75*
G03*
X10830500Y-7242850I-35500J0D01*
G01*
X10830500Y-8442850D02*
G75*
G03*
X10830500Y-8442850I-35500J0D01*
G01*
X10830500Y-9242850D02*
G75*
G03*
X10830500Y-9242850I-35500J0D01*
G01*
X10830500Y-13242850D02*
G75*
G03*
X10830500Y-13242850I-35500J0D01*
G01*
X11084500Y-5368850D02*
G75*
G03*
X11084500Y-5368850I-35500J0D01*
G01*
X11084500Y-7242850D02*
G75*
G03*
X11084500Y-7242850I-35500J0D01*
G01*
X11084500Y-8442850D02*
G75*
G03*
X11084500Y-8442850I-35500J0D01*
G01*
X11084500Y-9242850D02*
G75*
G03*
X11084500Y-9242850I-35500J0D01*
G01*
X11084500Y-13242850D02*
G75*
G03*
X11084500Y-13242850I-35500J0D01*
G01*
D10*
X10096500Y-11126000D02*
X10096500Y-11226000D01*
X10046500Y-11176000D02*
X10146500Y-11176000D01*
X10096500Y-11380000D02*
X10096500Y-11480000D01*
X10046500Y-11430000D02*
X10146500Y-11430000D01*
X10096500Y-11634000D02*
X10096500Y-11734000D01*
X10046500Y-11684000D02*
X10146500Y-11684000D01*
X10096500Y-11888000D02*
X10096500Y-11988000D01*
X10046500Y-11938000D02*
X10146500Y-11938000D01*
X10096500Y-12142000D02*
X10096500Y-12242000D01*
X10046500Y-12192000D02*
X10146500Y-12192000D01*
X10096500Y-12396000D02*
X10096500Y-12496000D01*
X10046500Y-12446000D02*
X10146500Y-12446000D01*
X10985500Y-11126000D02*
X10985500Y-11226000D01*
X10935500Y-11176000D02*
X11035500Y-11176000D01*
X10985500Y-11380000D02*
X10985500Y-11480000D01*
X10935500Y-11430000D02*
X11035500Y-11430000D01*
X10985500Y-11634000D02*
X10985500Y-11734000D01*
X10935500Y-11684000D02*
X11035500Y-11684000D01*
X10985500Y-11888000D02*
X10985500Y-11988000D01*
X10935500Y-11938000D02*
X11035500Y-11938000D01*
X10985500Y-12142000D02*
X10985500Y-12242000D01*
X10935500Y-12192000D02*
X11035500Y-12192000D01*
X10985500Y-12396000D02*
X10985500Y-12496000D01*
X10935500Y-12446000D02*
X11035500Y-12446000D01*
D11*
X10095119Y-13777476D02*
X10095119Y-13577476D01*
X10142738Y-13577476D01*
X10171310Y-13587000D01*
X10190357Y-13606048D01*
X10199881Y-13625095D01*
X10209405Y-13663190D01*
X10209405Y-13691762D01*
X10199881Y-13729857D01*
X10190357Y-13748905D01*
X10171310Y-13767952D01*
X10142738Y-13777476D01*
X10095119Y-13777476D01*
X10295119Y-13777476D02*
X10295119Y-13644143D01*
X10295119Y-13682238D02*
X10304643Y-13663190D01*
X10314167Y-13653667D01*
X10333214Y-13644143D01*
X10352262Y-13644143D01*
X10418929Y-13777476D02*
X10418929Y-13644143D01*
X10418929Y-13577476D02*
X10409405Y-13587000D01*
X10418929Y-13596524D01*
X10428452Y-13587000D01*
X10418929Y-13577476D01*
X10418929Y-13596524D01*
X10542738Y-13777476D02*
X10523690Y-13767952D01*
X10514167Y-13748905D01*
X10514167Y-13577476D01*
X10647500Y-13777476D02*
X10628452Y-13767952D01*
X10618929Y-13748905D01*
X10618929Y-13577476D01*
X10876071Y-13777476D02*
X10876071Y-13577476D01*
X10942738Y-13720333D01*
X11009405Y-13577476D01*
X11009405Y-13777476D01*
X11190357Y-13777476D02*
X11190357Y-13672714D01*
X11180833Y-13653667D01*
X11161786Y-13644143D01*
X11123690Y-13644143D01*
X11104643Y-13653667D01*
X11190357Y-13767952D02*
X11171310Y-13777476D01*
X11123690Y-13777476D01*
X11104643Y-13767952D01*
X11095119Y-13748905D01*
X11095119Y-13729857D01*
X11104643Y-13710809D01*
X11123690Y-13701286D01*
X11171310Y-13701286D01*
X11190357Y-13691762D01*
X11285595Y-13644143D02*
X11285595Y-13844143D01*
X11285595Y-13653667D02*
X11304643Y-13644143D01*
X11342738Y-13644143D01*
X11361786Y-13653667D01*
X11371309Y-13663190D01*
X11380833Y-13682238D01*
X11380833Y-13739381D01*
X11371309Y-13758428D01*
X11361786Y-13767952D01*
X11342738Y-13777476D01*
X11304643Y-13777476D01*
X11285595Y-13767952D01*
X11466548Y-13758428D02*
X11476071Y-13767952D01*
X11466548Y-13777476D01*
X11457024Y-13767952D01*
X11466548Y-13758428D01*
X11466548Y-13777476D01*
X11466548Y-13653667D02*
X11476071Y-13663190D01*
X11466548Y-13672714D01*
X11457024Y-13663190D01*
X11466548Y-13653667D01*
X11466548Y-13672714D01*
D12*
X9797500Y-14087000D02*
X9837500Y-14127000D01*
X9837500Y-14087000D02*
X9797500Y-14127000D01*
D11*
X10133214Y-13997476D02*
X10152262Y-13997476D01*
X10171310Y-14007000D01*
X10180833Y-14016524D01*
X10190357Y-14035571D01*
X10199881Y-14073667D01*
X10199881Y-14121286D01*
X10190357Y-14159381D01*
X10180833Y-14178428D01*
X10171310Y-14187952D01*
X10152262Y-14197476D01*
X10133214Y-14197476D01*
X10114167Y-14187952D01*
X10104643Y-14178428D01*
X10095119Y-14159381D01*
X10085595Y-14121286D01*
X10085595Y-14073667D01*
X10095119Y-14035571D01*
X10104643Y-14016524D01*
X10114167Y-14007000D01*
X10133214Y-13997476D01*
X10285595Y-14178428D02*
X10295119Y-14187952D01*
X10285595Y-14197476D01*
X10276071Y-14187952D01*
X10285595Y-14178428D01*
X10285595Y-14197476D01*
X10466548Y-14064143D02*
X10466548Y-14197476D01*
X10418929Y-13987952D02*
X10371310Y-14130809D01*
X10495119Y-14130809D01*
X10609405Y-13997476D02*
X10628452Y-13997476D01*
X10647500Y-14007000D01*
X10657024Y-14016524D01*
X10666548Y-14035571D01*
X10676071Y-14073667D01*
X10676071Y-14121286D01*
X10666548Y-14159381D01*
X10657024Y-14178428D01*
X10647500Y-14187952D01*
X10628452Y-14197476D01*
X10609405Y-14197476D01*
X10590357Y-14187952D01*
X10580833Y-14178428D01*
X10571310Y-14159381D01*
X10561786Y-14121286D01*
X10561786Y-14073667D01*
X10571310Y-14035571D01*
X10580833Y-14016524D01*
X10590357Y-14007000D01*
X10609405Y-13997476D01*
X10799881Y-13997476D02*
X10818929Y-13997476D01*
X10837976Y-14007000D01*
X10847500Y-14016524D01*
X10857024Y-14035571D01*
X10866548Y-14073667D01*
X10866548Y-14121286D01*
X10857024Y-14159381D01*
X10847500Y-14178428D01*
X10837976Y-14187952D01*
X10818929Y-14197476D01*
X10799881Y-14197476D01*
X10780833Y-14187952D01*
X10771310Y-14178428D01*
X10761786Y-14159381D01*
X10752262Y-14121286D01*
X10752262Y-14073667D01*
X10761786Y-14035571D01*
X10771310Y-14016524D01*
X10780833Y-14007000D01*
X10799881Y-13997476D01*
X10952262Y-14197476D02*
X10952262Y-14064143D01*
X10952262Y-14083190D02*
X10961786Y-14073667D01*
X10980833Y-14064143D01*
X11009405Y-14064143D01*
X11028452Y-14073667D01*
X11037976Y-14092714D01*
X11037976Y-14197476D01*
X11037976Y-14092714D02*
X11047500Y-14073667D01*
X11066548Y-14064143D01*
X11095119Y-14064143D01*
X11114167Y-14073667D01*
X11123690Y-14092714D01*
X11123690Y-14197476D01*
X11218928Y-14197476D02*
X11218928Y-14064143D01*
X11218928Y-14083190D02*
X11228452Y-14073667D01*
X11247500Y-14064143D01*
X11276071Y-14064143D01*
X11295119Y-14073667D01*
X11304643Y-14092714D01*
X11304643Y-14197476D01*
X11304643Y-14092714D02*
X11314167Y-14073667D01*
X11333214Y-14064143D01*
X11361786Y-14064143D01*
X11380833Y-14073667D01*
X11390357Y-14092714D01*
X11390357Y-14197476D01*
X11780833Y-13987952D02*
X11609405Y-14245095D01*
X12037976Y-13997476D02*
X12057024Y-13997476D01*
X12076071Y-14007000D01*
X12085595Y-14016524D01*
X12095119Y-14035571D01*
X12104643Y-14073667D01*
X12104643Y-14121286D01*
X12095119Y-14159381D01*
X12085595Y-14178428D01*
X12076071Y-14187952D01*
X12057024Y-14197476D01*
X12037976Y-14197476D01*
X12018928Y-14187952D01*
X12009405Y-14178428D01*
X11999881Y-14159381D01*
X11990357Y-14121286D01*
X11990357Y-14073667D01*
X11999881Y-14035571D01*
X12009405Y-14016524D01*
X12018928Y-14007000D01*
X12037976Y-13997476D01*
X12190357Y-14178428D02*
X12199881Y-14187952D01*
X12190357Y-14197476D01*
X12180833Y-14187952D01*
X12190357Y-14178428D01*
X12190357Y-14197476D01*
X12323690Y-13997476D02*
X12342738Y-13997476D01*
X12361786Y-14007000D01*
X12371309Y-14016524D01*
X12380833Y-14035571D01*
X12390357Y-14073667D01*
X12390357Y-14121286D01*
X12380833Y-14159381D01*
X12371309Y-14178428D01*
X12361786Y-14187952D01*
X12342738Y-14197476D01*
X12323690Y-14197476D01*
X12304643Y-14187952D01*
X12295119Y-14178428D01*
X12285595Y-14159381D01*
X12276071Y-14121286D01*
X12276071Y-14073667D01*
X12285595Y-14035571D01*
X12295119Y-14016524D01*
X12304643Y-14007000D01*
X12323690Y-13997476D01*
X12580833Y-14197476D02*
X12466548Y-14197476D01*
X12523690Y-14197476D02*
X12523690Y-13997476D01*
X12504643Y-14026048D01*
X12485595Y-14045095D01*
X12466548Y-14054619D01*
X12761786Y-13997476D02*
X12666548Y-13997476D01*
X12657024Y-14092714D01*
X12666548Y-14083190D01*
X12685595Y-14073667D01*
X12733214Y-14073667D01*
X12752262Y-14083190D01*
X12761786Y-14092714D01*
X12771309Y-14111762D01*
X12771309Y-14159381D01*
X12761786Y-14178428D01*
X12752262Y-14187952D01*
X12733214Y-14197476D01*
X12685595Y-14197476D01*
X12666548Y-14187952D01*
X12657024Y-14178428D01*
X12837976Y-13997476D02*
X12971309Y-13997476D01*
X12885595Y-14197476D01*
X13037976Y-13997476D02*
X13037976Y-14035571D01*
X13114167Y-13997476D02*
X13114167Y-14035571D01*
X13409405Y-14273667D02*
X13399881Y-14264143D01*
X13380833Y-14235571D01*
X13371309Y-14216524D01*
X13361786Y-14187952D01*
X13352262Y-14140333D01*
X13352262Y-14102238D01*
X13361786Y-14054619D01*
X13371309Y-14026048D01*
X13380833Y-14007000D01*
X13399881Y-13978428D01*
X13409405Y-13968905D01*
X13514167Y-14083190D02*
X13495119Y-14073667D01*
X13485595Y-14064143D01*
X13476071Y-14045095D01*
X13476071Y-14035571D01*
X13485595Y-14016524D01*
X13495119Y-14007000D01*
X13514167Y-13997476D01*
X13552262Y-13997476D01*
X13571309Y-14007000D01*
X13580833Y-14016524D01*
X13590357Y-14035571D01*
X13590357Y-14045095D01*
X13580833Y-14064143D01*
X13571309Y-14073667D01*
X13552262Y-14083190D01*
X13514167Y-14083190D01*
X13495119Y-14092714D01*
X13485595Y-14102238D01*
X13476071Y-14121286D01*
X13476071Y-14159381D01*
X13485595Y-14178428D01*
X13495119Y-14187952D01*
X13514167Y-14197476D01*
X13552262Y-14197476D01*
X13571309Y-14187952D01*
X13580833Y-14178428D01*
X13590357Y-14159381D01*
X13590357Y-14121286D01*
X13580833Y-14102238D01*
X13571309Y-14092714D01*
X13552262Y-14083190D01*
X13828452Y-14197476D02*
X13828452Y-13997476D01*
X13914167Y-14197476D02*
X13914167Y-14092714D01*
X13904643Y-14073667D01*
X13885595Y-14064143D01*
X13857024Y-14064143D01*
X13837976Y-14073667D01*
X13828452Y-14083190D01*
X14037976Y-14197476D02*
X14018928Y-14187952D01*
X14009405Y-14178428D01*
X13999881Y-14159381D01*
X13999881Y-14102238D01*
X14009405Y-14083190D01*
X14018928Y-14073667D01*
X14037976Y-14064143D01*
X14066548Y-14064143D01*
X14085595Y-14073667D01*
X14095119Y-14083190D01*
X14104643Y-14102238D01*
X14104643Y-14159381D01*
X14095119Y-14178428D01*
X14085595Y-14187952D01*
X14066548Y-14197476D01*
X14037976Y-14197476D01*
X14218928Y-14197476D02*
X14199881Y-14187952D01*
X14190357Y-14168905D01*
X14190357Y-13997476D01*
X14371309Y-14187952D02*
X14352262Y-14197476D01*
X14314167Y-14197476D01*
X14295119Y-14187952D01*
X14285595Y-14168905D01*
X14285595Y-14092714D01*
X14295119Y-14073667D01*
X14314167Y-14064143D01*
X14352262Y-14064143D01*
X14371309Y-14073667D01*
X14380833Y-14092714D01*
X14380833Y-14111762D01*
X14285595Y-14130809D01*
X14457024Y-14187952D02*
X14476071Y-14197476D01*
X14514167Y-14197476D01*
X14533214Y-14187952D01*
X14542738Y-14168905D01*
X14542738Y-14159381D01*
X14533214Y-14140333D01*
X14514167Y-14130809D01*
X14485595Y-14130809D01*
X14466548Y-14121286D01*
X14457024Y-14102238D01*
X14457024Y-14092714D01*
X14466548Y-14073667D01*
X14485595Y-14064143D01*
X14514167Y-14064143D01*
X14533214Y-14073667D01*
X14609405Y-14273667D02*
X14618928Y-14264143D01*
X14637976Y-14235571D01*
X14647500Y-14216524D01*
X14657024Y-14187952D01*
X14666548Y-14140333D01*
X14666548Y-14102238D01*
X14657024Y-14054619D01*
X14647500Y-14026048D01*
X14637976Y-14007000D01*
X14618928Y-13978428D01*
X14609405Y-13968905D01*
D13*
X9837500Y-14371000D02*
G75*
G03*
X9837500Y-14371000I-35500J0D01*
G01*
D11*
X10133214Y-14261476D02*
X10152262Y-14261476D01*
X10171310Y-14271000D01*
X10180833Y-14280524D01*
X10190357Y-14299571D01*
X10199881Y-14337667D01*
X10199881Y-14385286D01*
X10190357Y-14423381D01*
X10180833Y-14442428D01*
X10171310Y-14451952D01*
X10152262Y-14461476D01*
X10133214Y-14461476D01*
X10114167Y-14451952D01*
X10104643Y-14442428D01*
X10095119Y-14423381D01*
X10085595Y-14385286D01*
X10085595Y-14337667D01*
X10095119Y-14299571D01*
X10104643Y-14280524D01*
X10114167Y-14271000D01*
X10133214Y-14261476D01*
X10285595Y-14442428D02*
X10295119Y-14451952D01*
X10285595Y-14461476D01*
X10276071Y-14451952D01*
X10285595Y-14442428D01*
X10285595Y-14461476D01*
X10361786Y-14261476D02*
X10495119Y-14261476D01*
X10409405Y-14461476D01*
X10676071Y-14461476D02*
X10561786Y-14461476D01*
X10618929Y-14461476D02*
X10618929Y-14261476D01*
X10599881Y-14290048D01*
X10580833Y-14309095D01*
X10561786Y-14318619D01*
X10799881Y-14261476D02*
X10818929Y-14261476D01*
X10837976Y-14271000D01*
X10847500Y-14280524D01*
X10857024Y-14299571D01*
X10866548Y-14337667D01*
X10866548Y-14385286D01*
X10857024Y-14423381D01*
X10847500Y-14442428D01*
X10837976Y-14451952D01*
X10818929Y-14461476D01*
X10799881Y-14461476D01*
X10780833Y-14451952D01*
X10771310Y-14442428D01*
X10761786Y-14423381D01*
X10752262Y-14385286D01*
X10752262Y-14337667D01*
X10761786Y-14299571D01*
X10771310Y-14280524D01*
X10780833Y-14271000D01*
X10799881Y-14261476D01*
X10952262Y-14461476D02*
X10952262Y-14328143D01*
X10952262Y-14347190D02*
X10961786Y-14337667D01*
X10980833Y-14328143D01*
X11009405Y-14328143D01*
X11028452Y-14337667D01*
X11037976Y-14356714D01*
X11037976Y-14461476D01*
X11037976Y-14356714D02*
X11047500Y-14337667D01*
X11066548Y-14328143D01*
X11095119Y-14328143D01*
X11114167Y-14337667D01*
X11123690Y-14356714D01*
X11123690Y-14461476D01*
X11218928Y-14461476D02*
X11218928Y-14328143D01*
X11218928Y-14347190D02*
X11228452Y-14337667D01*
X11247500Y-14328143D01*
X11276071Y-14328143D01*
X11295119Y-14337667D01*
X11304643Y-14356714D01*
X11304643Y-14461476D01*
X11304643Y-14356714D02*
X11314167Y-14337667D01*
X11333214Y-14328143D01*
X11361786Y-14328143D01*
X11380833Y-14337667D01*
X11390357Y-14356714D01*
X11390357Y-14461476D01*
X11780833Y-14251952D02*
X11609405Y-14509095D01*
X12037976Y-14261476D02*
X12057024Y-14261476D01*
X12076071Y-14271000D01*
X12085595Y-14280524D01*
X12095119Y-14299571D01*
X12104643Y-14337667D01*
X12104643Y-14385286D01*
X12095119Y-14423381D01*
X12085595Y-14442428D01*
X12076071Y-14451952D01*
X12057024Y-14461476D01*
X12037976Y-14461476D01*
X12018928Y-14451952D01*
X12009405Y-14442428D01*
X11999881Y-14423381D01*
X11990357Y-14385286D01*
X11990357Y-14337667D01*
X11999881Y-14299571D01*
X12009405Y-14280524D01*
X12018928Y-14271000D01*
X12037976Y-14261476D01*
X12190357Y-14442428D02*
X12199881Y-14451952D01*
X12190357Y-14461476D01*
X12180833Y-14451952D01*
X12190357Y-14442428D01*
X12190357Y-14461476D01*
X12323690Y-14261476D02*
X12342738Y-14261476D01*
X12361786Y-14271000D01*
X12371309Y-14280524D01*
X12380833Y-14299571D01*
X12390357Y-14337667D01*
X12390357Y-14385286D01*
X12380833Y-14423381D01*
X12371309Y-14442428D01*
X12361786Y-14451952D01*
X12342738Y-14461476D01*
X12323690Y-14461476D01*
X12304643Y-14451952D01*
X12295119Y-14442428D01*
X12285595Y-14423381D01*
X12276071Y-14385286D01*
X12276071Y-14337667D01*
X12285595Y-14299571D01*
X12295119Y-14280524D01*
X12304643Y-14271000D01*
X12323690Y-14261476D01*
X12466548Y-14280524D02*
X12476071Y-14271000D01*
X12495119Y-14261476D01*
X12542738Y-14261476D01*
X12561786Y-14271000D01*
X12571309Y-14280524D01*
X12580833Y-14299571D01*
X12580833Y-14318619D01*
X12571309Y-14347190D01*
X12457024Y-14461476D01*
X12580833Y-14461476D01*
X12695119Y-14347190D02*
X12676071Y-14337667D01*
X12666548Y-14328143D01*
X12657024Y-14309095D01*
X12657024Y-14299571D01*
X12666548Y-14280524D01*
X12676071Y-14271000D01*
X12695119Y-14261476D01*
X12733214Y-14261476D01*
X12752262Y-14271000D01*
X12761786Y-14280524D01*
X12771309Y-14299571D01*
X12771309Y-14309095D01*
X12761786Y-14328143D01*
X12752262Y-14337667D01*
X12733214Y-14347190D01*
X12695119Y-14347190D01*
X12676071Y-14356714D01*
X12666548Y-14366238D01*
X12657024Y-14385286D01*
X12657024Y-14423381D01*
X12666548Y-14442428D01*
X12676071Y-14451952D01*
X12695119Y-14461476D01*
X12733214Y-14461476D01*
X12752262Y-14451952D01*
X12761786Y-14442428D01*
X12771309Y-14423381D01*
X12771309Y-14385286D01*
X12761786Y-14366238D01*
X12752262Y-14356714D01*
X12733214Y-14347190D01*
X12895119Y-14261476D02*
X12914167Y-14261476D01*
X12933214Y-14271000D01*
X12942738Y-14280524D01*
X12952262Y-14299571D01*
X12961786Y-14337667D01*
X12961786Y-14385286D01*
X12952262Y-14423381D01*
X12942738Y-14442428D01*
X12933214Y-14451952D01*
X12914167Y-14461476D01*
X12895119Y-14461476D01*
X12876071Y-14451952D01*
X12866548Y-14442428D01*
X12857024Y-14423381D01*
X12847500Y-14385286D01*
X12847500Y-14337667D01*
X12857024Y-14299571D01*
X12866548Y-14280524D01*
X12876071Y-14271000D01*
X12895119Y-14261476D01*
X13037976Y-14261476D02*
X13037976Y-14299571D01*
X13114167Y-14261476D02*
X13114167Y-14299571D01*
X13409405Y-14537667D02*
X13399881Y-14528143D01*
X13380833Y-14499571D01*
X13371309Y-14480524D01*
X13361786Y-14451952D01*
X13352262Y-14404333D01*
X13352262Y-14366238D01*
X13361786Y-14318619D01*
X13371309Y-14290048D01*
X13380833Y-14271000D01*
X13399881Y-14242428D01*
X13409405Y-14232905D01*
X13476071Y-14280524D02*
X13485595Y-14271000D01*
X13504643Y-14261476D01*
X13552262Y-14261476D01*
X13571309Y-14271000D01*
X13580833Y-14280524D01*
X13590357Y-14299571D01*
X13590357Y-14318619D01*
X13580833Y-14347190D01*
X13466548Y-14461476D01*
X13590357Y-14461476D01*
X13771309Y-14261476D02*
X13676071Y-14261476D01*
X13666548Y-14356714D01*
X13676071Y-14347190D01*
X13695119Y-14337667D01*
X13742738Y-14337667D01*
X13761786Y-14347190D01*
X13771309Y-14356714D01*
X13780833Y-14375762D01*
X13780833Y-14423381D01*
X13771309Y-14442428D01*
X13761786Y-14451952D01*
X13742738Y-14461476D01*
X13695119Y-14461476D01*
X13676071Y-14451952D01*
X13666548Y-14442428D01*
X14018928Y-14461476D02*
X14018928Y-14261476D01*
X14104643Y-14461476D02*
X14104643Y-14356714D01*
X14095119Y-14337667D01*
X14076071Y-14328143D01*
X14047500Y-14328143D01*
X14028452Y-14337667D01*
X14018928Y-14347190D01*
X14228452Y-14461476D02*
X14209405Y-14451952D01*
X14199881Y-14442428D01*
X14190357Y-14423381D01*
X14190357Y-14366238D01*
X14199881Y-14347190D01*
X14209405Y-14337667D01*
X14228452Y-14328143D01*
X14257024Y-14328143D01*
X14276071Y-14337667D01*
X14285595Y-14347190D01*
X14295119Y-14366238D01*
X14295119Y-14423381D01*
X14285595Y-14442428D01*
X14276071Y-14451952D01*
X14257024Y-14461476D01*
X14228452Y-14461476D01*
X14409405Y-14461476D02*
X14390357Y-14451952D01*
X14380833Y-14432905D01*
X14380833Y-14261476D01*
X14561786Y-14451952D02*
X14542738Y-14461476D01*
X14504643Y-14461476D01*
X14485595Y-14451952D01*
X14476071Y-14432905D01*
X14476071Y-14356714D01*
X14485595Y-14337667D01*
X14504643Y-14328143D01*
X14542738Y-14328143D01*
X14561786Y-14337667D01*
X14571309Y-14356714D01*
X14571309Y-14375762D01*
X14476071Y-14394809D01*
X14647500Y-14451952D02*
X14666548Y-14461476D01*
X14704643Y-14461476D01*
X14723690Y-14451952D01*
X14733214Y-14432905D01*
X14733214Y-14423381D01*
X14723690Y-14404333D01*
X14704643Y-14394809D01*
X14676071Y-14394809D01*
X14657024Y-14385286D01*
X14647500Y-14366238D01*
X14647500Y-14356714D01*
X14657024Y-14337667D01*
X14676071Y-14328143D01*
X14704643Y-14328143D01*
X14723690Y-14337667D01*
X14799881Y-14537667D02*
X14809405Y-14528143D01*
X14828452Y-14499571D01*
X14837976Y-14480524D01*
X14847500Y-14451952D01*
X14857024Y-14404333D01*
X14857024Y-14366238D01*
X14847500Y-14318619D01*
X14837976Y-14290048D01*
X14828452Y-14271000D01*
X14809405Y-14242428D01*
X14799881Y-14232905D01*
D10*
X9787500Y-14585000D02*
X9787500Y-14685000D01*
X9737500Y-14635000D02*
X9837500Y-14635000D01*
D11*
X10199881Y-14725476D02*
X10085595Y-14725476D01*
X10142738Y-14725476D02*
X10142738Y-14525476D01*
X10123690Y-14554048D01*
X10104643Y-14573095D01*
X10085595Y-14582619D01*
X10285595Y-14706428D02*
X10295119Y-14715952D01*
X10285595Y-14725476D01*
X10276071Y-14715952D01*
X10285595Y-14706428D01*
X10285595Y-14725476D01*
X10418929Y-14525476D02*
X10437976Y-14525476D01*
X10457024Y-14535000D01*
X10466548Y-14544524D01*
X10476071Y-14563571D01*
X10485595Y-14601667D01*
X10485595Y-14649286D01*
X10476071Y-14687381D01*
X10466548Y-14706428D01*
X10457024Y-14715952D01*
X10437976Y-14725476D01*
X10418929Y-14725476D01*
X10399881Y-14715952D01*
X10390357Y-14706428D01*
X10380833Y-14687381D01*
X10371310Y-14649286D01*
X10371310Y-14601667D01*
X10380833Y-14563571D01*
X10390357Y-14544524D01*
X10399881Y-14535000D01*
X10418929Y-14525476D01*
X10609405Y-14525476D02*
X10628452Y-14525476D01*
X10647500Y-14535000D01*
X10657024Y-14544524D01*
X10666548Y-14563571D01*
X10676071Y-14601667D01*
X10676071Y-14649286D01*
X10666548Y-14687381D01*
X10657024Y-14706428D01*
X10647500Y-14715952D01*
X10628452Y-14725476D01*
X10609405Y-14725476D01*
X10590357Y-14715952D01*
X10580833Y-14706428D01*
X10571310Y-14687381D01*
X10561786Y-14649286D01*
X10561786Y-14601667D01*
X10571310Y-14563571D01*
X10580833Y-14544524D01*
X10590357Y-14535000D01*
X10609405Y-14525476D01*
X10799881Y-14525476D02*
X10818929Y-14525476D01*
X10837976Y-14535000D01*
X10847500Y-14544524D01*
X10857024Y-14563571D01*
X10866548Y-14601667D01*
X10866548Y-14649286D01*
X10857024Y-14687381D01*
X10847500Y-14706428D01*
X10837976Y-14715952D01*
X10818929Y-14725476D01*
X10799881Y-14725476D01*
X10780833Y-14715952D01*
X10771310Y-14706428D01*
X10761786Y-14687381D01*
X10752262Y-14649286D01*
X10752262Y-14601667D01*
X10761786Y-14563571D01*
X10771310Y-14544524D01*
X10780833Y-14535000D01*
X10799881Y-14525476D01*
X10952262Y-14725476D02*
X10952262Y-14592143D01*
X10952262Y-14611190D02*
X10961786Y-14601667D01*
X10980833Y-14592143D01*
X11009405Y-14592143D01*
X11028452Y-14601667D01*
X11037976Y-14620714D01*
X11037976Y-14725476D01*
X11037976Y-14620714D02*
X11047500Y-14601667D01*
X11066548Y-14592143D01*
X11095119Y-14592143D01*
X11114167Y-14601667D01*
X11123690Y-14620714D01*
X11123690Y-14725476D01*
X11218928Y-14725476D02*
X11218928Y-14592143D01*
X11218928Y-14611190D02*
X11228452Y-14601667D01*
X11247500Y-14592143D01*
X11276071Y-14592143D01*
X11295119Y-14601667D01*
X11304643Y-14620714D01*
X11304643Y-14725476D01*
X11304643Y-14620714D02*
X11314167Y-14601667D01*
X11333214Y-14592143D01*
X11361786Y-14592143D01*
X11380833Y-14601667D01*
X11390357Y-14620714D01*
X11390357Y-14725476D01*
X11780833Y-14515952D02*
X11609405Y-14773095D01*
X12037976Y-14525476D02*
X12057024Y-14525476D01*
X12076071Y-14535000D01*
X12085595Y-14544524D01*
X12095119Y-14563571D01*
X12104643Y-14601667D01*
X12104643Y-14649286D01*
X12095119Y-14687381D01*
X12085595Y-14706428D01*
X12076071Y-14715952D01*
X12057024Y-14725476D01*
X12037976Y-14725476D01*
X12018928Y-14715952D01*
X12009405Y-14706428D01*
X11999881Y-14687381D01*
X11990357Y-14649286D01*
X11990357Y-14601667D01*
X11999881Y-14563571D01*
X12009405Y-14544524D01*
X12018928Y-14535000D01*
X12037976Y-14525476D01*
X12190357Y-14706428D02*
X12199881Y-14715952D01*
X12190357Y-14725476D01*
X12180833Y-14715952D01*
X12190357Y-14706428D01*
X12190357Y-14725476D01*
X12323690Y-14525476D02*
X12342738Y-14525476D01*
X12361786Y-14535000D01*
X12371309Y-14544524D01*
X12380833Y-14563571D01*
X12390357Y-14601667D01*
X12390357Y-14649286D01*
X12380833Y-14687381D01*
X12371309Y-14706428D01*
X12361786Y-14715952D01*
X12342738Y-14725476D01*
X12323690Y-14725476D01*
X12304643Y-14715952D01*
X12295119Y-14706428D01*
X12285595Y-14687381D01*
X12276071Y-14649286D01*
X12276071Y-14601667D01*
X12285595Y-14563571D01*
X12295119Y-14544524D01*
X12304643Y-14535000D01*
X12323690Y-14525476D01*
X12457024Y-14525476D02*
X12580833Y-14525476D01*
X12514167Y-14601667D01*
X12542738Y-14601667D01*
X12561786Y-14611190D01*
X12571309Y-14620714D01*
X12580833Y-14639762D01*
X12580833Y-14687381D01*
X12571309Y-14706428D01*
X12561786Y-14715952D01*
X12542738Y-14725476D01*
X12485595Y-14725476D01*
X12466548Y-14715952D01*
X12457024Y-14706428D01*
X12676071Y-14725476D02*
X12714167Y-14725476D01*
X12733214Y-14715952D01*
X12742738Y-14706428D01*
X12761786Y-14677857D01*
X12771309Y-14639762D01*
X12771309Y-14563571D01*
X12761786Y-14544524D01*
X12752262Y-14535000D01*
X12733214Y-14525476D01*
X12695119Y-14525476D01*
X12676071Y-14535000D01*
X12666548Y-14544524D01*
X12657024Y-14563571D01*
X12657024Y-14611190D01*
X12666548Y-14630238D01*
X12676071Y-14639762D01*
X12695119Y-14649286D01*
X12733214Y-14649286D01*
X12752262Y-14639762D01*
X12761786Y-14630238D01*
X12771309Y-14611190D01*
X12942738Y-14592143D02*
X12942738Y-14725476D01*
X12895119Y-14515952D02*
X12847500Y-14658809D01*
X12971309Y-14658809D01*
X13037976Y-14525476D02*
X13037976Y-14563571D01*
X13114167Y-14525476D02*
X13114167Y-14563571D01*
X13409405Y-14801667D02*
X13399881Y-14792143D01*
X13380833Y-14763571D01*
X13371309Y-14744524D01*
X13361786Y-14715952D01*
X13352262Y-14668333D01*
X13352262Y-14630238D01*
X13361786Y-14582619D01*
X13371309Y-14554048D01*
X13380833Y-14535000D01*
X13399881Y-14506428D01*
X13409405Y-14496905D01*
X13590357Y-14725476D02*
X13476071Y-14725476D01*
X13533214Y-14725476D02*
X13533214Y-14525476D01*
X13514167Y-14554048D01*
X13495119Y-14573095D01*
X13476071Y-14582619D01*
X13666548Y-14544524D02*
X13676071Y-14535000D01*
X13695119Y-14525476D01*
X13742738Y-14525476D01*
X13761786Y-14535000D01*
X13771309Y-14544524D01*
X13780833Y-14563571D01*
X13780833Y-14582619D01*
X13771309Y-14611190D01*
X13657024Y-14725476D01*
X13780833Y-14725476D01*
X14018928Y-14725476D02*
X14018928Y-14525476D01*
X14104643Y-14725476D02*
X14104643Y-14620714D01*
X14095119Y-14601667D01*
X14076071Y-14592143D01*
X14047500Y-14592143D01*
X14028452Y-14601667D01*
X14018928Y-14611190D01*
X14228452Y-14725476D02*
X14209405Y-14715952D01*
X14199881Y-14706428D01*
X14190357Y-14687381D01*
X14190357Y-14630238D01*
X14199881Y-14611190D01*
X14209405Y-14601667D01*
X14228452Y-14592143D01*
X14257024Y-14592143D01*
X14276071Y-14601667D01*
X14285595Y-14611190D01*
X14295119Y-14630238D01*
X14295119Y-14687381D01*
X14285595Y-14706428D01*
X14276071Y-14715952D01*
X14257024Y-14725476D01*
X14228452Y-14725476D01*
X14409405Y-14725476D02*
X14390357Y-14715952D01*
X14380833Y-14696905D01*
X14380833Y-14525476D01*
X14561786Y-14715952D02*
X14542738Y-14725476D01*
X14504643Y-14725476D01*
X14485595Y-14715952D01*
X14476071Y-14696905D01*
X14476071Y-14620714D01*
X14485595Y-14601667D01*
X14504643Y-14592143D01*
X14542738Y-14592143D01*
X14561786Y-14601667D01*
X14571309Y-14620714D01*
X14571309Y-14639762D01*
X14476071Y-14658809D01*
X14647500Y-14715952D02*
X14666548Y-14725476D01*
X14704643Y-14725476D01*
X14723690Y-14715952D01*
X14733214Y-14696905D01*
X14733214Y-14687381D01*
X14723690Y-14668333D01*
X14704643Y-14658809D01*
X14676071Y-14658809D01*
X14657024Y-14649286D01*
X14647500Y-14630238D01*
X14647500Y-14620714D01*
X14657024Y-14601667D01*
X14676071Y-14592143D01*
X14704643Y-14592143D01*
X14723690Y-14601667D01*
X14799881Y-14801667D02*
X14809405Y-14792143D01*
X14828452Y-14763571D01*
X14837976Y-14744524D01*
X14847500Y-14715952D01*
X14857024Y-14668333D01*
X14857024Y-14630238D01*
X14847500Y-14582619D01*
X14837976Y-14554048D01*
X14828452Y-14535000D01*
X14809405Y-14506428D01*
X14799881Y-14496905D01*
M02*
