%TF.GenerationSoftware,KiCad,Pcbnew,6.0.11*%
%TF.CreationDate,2024-08-01T21:03:11+01:00*%
%TF.ProjectId,7Backpack,37426163-6b70-4616-936b-2e6b69636164,rev?*%
%TF.SameCoordinates,Original*%
%TF.FileFunction,Drillmap*%
%TF.FilePolarity,Positive*%
%FSLAX45Y45*%
G04 Gerber Fmt 4.5, Leading zero omitted, Abs format (unit mm)*
G04 Created by KiCad (PCBNEW 6.0.11) date 2024-08-01 21:03:11*
%MOMM*%
%LPD*%
G01*
G04 APERTURE LIST*
%ADD10C,0.100000*%
%ADD11C,0.200000*%
G04 APERTURE END LIST*
D10*
X9842500Y-5143500D02*
X11239500Y-5143500D01*
X11239500Y-5143500D02*
X11239500Y-13462000D01*
X11239500Y-13462000D02*
X9842500Y-13462000D01*
X9842500Y-13462000D02*
X9842500Y-5143500D01*
X10211600Y-8153400D02*
G75*
G03*
X10211600Y-8153400I-50000J0D01*
G01*
X10464800Y-8153400D02*
G75*
G03*
X10464800Y-8153400I-50000J0D01*
G01*
X10463200Y-8966200D02*
G75*
G03*
X10463200Y-8966200I-50000J0D01*
G01*
X10464800Y-6959600D02*
G75*
G03*
X10464800Y-6959600I-50000J0D01*
G01*
X11201400Y-6959600D02*
G75*
G03*
X11201400Y-6959600I-50000J0D01*
G01*
X9983000Y-8153400D02*
G75*
G03*
X9983000Y-8153400I-50000J0D01*
G01*
X10718800Y-6959600D02*
G75*
G03*
X10718800Y-6959600I-50000J0D01*
G01*
X11201400Y-8153400D02*
G75*
G03*
X11201400Y-8153400I-50000J0D01*
G01*
X10718800Y-8153400D02*
G75*
G03*
X10718800Y-8153400I-50000J0D01*
G01*
X10717200Y-8966200D02*
G75*
G03*
X10717200Y-8966200I-50000J0D01*
G01*
X10972800Y-6959600D02*
G75*
G03*
X10972800Y-6959600I-50000J0D01*
G01*
X10972800Y-8153400D02*
G75*
G03*
X10972800Y-8153400I-50000J0D01*
G01*
X10210000Y-8966200D02*
G75*
G03*
X10210000Y-8966200I-50000J0D01*
G01*
X11199800Y-8966200D02*
G75*
G03*
X11199800Y-8966200I-50000J0D01*
G01*
X9981400Y-8966200D02*
G75*
G03*
X9981400Y-8966200I-50000J0D01*
G01*
X10211600Y-6959600D02*
G75*
G03*
X10211600Y-6959600I-50000J0D01*
G01*
X10971200Y-8966200D02*
G75*
G03*
X10971200Y-8966200I-50000J0D01*
G01*
X9983000Y-6959600D02*
G75*
G03*
X9983000Y-6959600I-50000J0D01*
G01*
D11*
X10095119Y-13777476D02*
X10095119Y-13577476D01*
X10142738Y-13577476D01*
X10171310Y-13587000D01*
X10190357Y-13606048D01*
X10199881Y-13625095D01*
X10209405Y-13663190D01*
X10209405Y-13691762D01*
X10199881Y-13729857D01*
X10190357Y-13748905D01*
X10171310Y-13767952D01*
X10142738Y-13777476D01*
X10095119Y-13777476D01*
X10295119Y-13777476D02*
X10295119Y-13644143D01*
X10295119Y-13682238D02*
X10304643Y-13663190D01*
X10314167Y-13653667D01*
X10333214Y-13644143D01*
X10352262Y-13644143D01*
X10418929Y-13777476D02*
X10418929Y-13644143D01*
X10418929Y-13577476D02*
X10409405Y-13587000D01*
X10418929Y-13596524D01*
X10428452Y-13587000D01*
X10418929Y-13577476D01*
X10418929Y-13596524D01*
X10542738Y-13777476D02*
X10523690Y-13767952D01*
X10514167Y-13748905D01*
X10514167Y-13577476D01*
X10647500Y-13777476D02*
X10628452Y-13767952D01*
X10618929Y-13748905D01*
X10618929Y-13577476D01*
X10876071Y-13777476D02*
X10876071Y-13577476D01*
X10942738Y-13720333D01*
X11009405Y-13577476D01*
X11009405Y-13777476D01*
X11190357Y-13777476D02*
X11190357Y-13672714D01*
X11180833Y-13653667D01*
X11161786Y-13644143D01*
X11123690Y-13644143D01*
X11104643Y-13653667D01*
X11190357Y-13767952D02*
X11171310Y-13777476D01*
X11123690Y-13777476D01*
X11104643Y-13767952D01*
X11095119Y-13748905D01*
X11095119Y-13729857D01*
X11104643Y-13710809D01*
X11123690Y-13701286D01*
X11171310Y-13701286D01*
X11190357Y-13691762D01*
X11285595Y-13644143D02*
X11285595Y-13844143D01*
X11285595Y-13653667D02*
X11304643Y-13644143D01*
X11342738Y-13644143D01*
X11361786Y-13653667D01*
X11371309Y-13663190D01*
X11380833Y-13682238D01*
X11380833Y-13739381D01*
X11371309Y-13758428D01*
X11361786Y-13767952D01*
X11342738Y-13777476D01*
X11304643Y-13777476D01*
X11285595Y-13767952D01*
X11466548Y-13758428D02*
X11476071Y-13767952D01*
X11466548Y-13777476D01*
X11457024Y-13767952D01*
X11466548Y-13758428D01*
X11466548Y-13777476D01*
X11466548Y-13653667D02*
X11476071Y-13663190D01*
X11466548Y-13672714D01*
X11457024Y-13663190D01*
X11466548Y-13653667D01*
X11466548Y-13672714D01*
M02*
