M48
; DRILL file {KiCad 6.0.11} date Thu 01 Aug 2024 09:03:09 PM IST
; FORMAT={-:-/ absolute / metric / decimal}
; #@! TF.CreationDate,2024-08-01T21:03:09+01:00
; #@! TF.GenerationSoftware,Kicad,Pcbnew,6.0.11
; #@! TF.FileFunction,Plated,1,2,PTH
FMAT,2
METRIC
; #@! TA.AperFunction,Plated,PTH,ViaDrill
T1C0.400
; #@! TA.AperFunction,Plated,PTH,ComponentDrill
T2C0.710
; #@! TA.AperFunction,Plated,PTH,ComponentDrill
T3C1.000
%
G90
G05
T1
X99.695Y-98.679
X101.42Y-103.195
X101.569Y-98.584
X102.108Y-108.712
X106.478Y-98.35
X106.934Y-103.886
X110.935Y-102.362
X110.998Y-99.822
T2
X100.33Y-53.688
X100.33Y-72.428
X100.33Y-84.428
X100.33Y-92.428
X100.33Y-132.428
X102.87Y-53.688
X102.87Y-72.428
X102.87Y-84.428
X102.87Y-92.428
X102.87Y-132.428
X105.41Y-53.688
X105.41Y-72.428
X105.41Y-84.428
X105.41Y-92.428
X105.41Y-132.428
X107.95Y-53.688
X107.95Y-72.428
X107.95Y-84.428
X107.95Y-92.428
X107.95Y-132.428
X110.49Y-53.688
X110.49Y-72.428
X110.49Y-84.428
X110.49Y-92.428
X110.49Y-132.428
T3
X100.965Y-111.76
X100.965Y-114.3
X100.965Y-116.84
X100.965Y-119.38
X100.965Y-121.92
X100.965Y-124.46
X109.855Y-111.76
X109.855Y-114.3
X109.855Y-116.84
X109.855Y-119.38
X109.855Y-121.92
X109.855Y-124.46
T0
M30
