%TF.GenerationSoftware,KiCad,Pcbnew,6.0.11*%
%TF.CreationDate,2024-07-26T21:25:55+01:00*%
%TF.ProjectId,7Backpack,37426163-6b70-4616-936b-2e6b69636164,rev?*%
%TF.SameCoordinates,Original*%
%TF.FileFunction,Copper,L2,Bot*%
%TF.FilePolarity,Positive*%
%FSLAX46Y46*%
G04 Gerber Fmt 4.6, Leading zero omitted, Abs format (unit mm)*
G04 Created by KiCad (PCBNEW 6.0.11) date 2024-07-26 21:25:55*
%MOMM*%
%LPD*%
G01*
G04 APERTURE LIST*
%TA.AperFunction,ComponentPad*%
%ADD10R,1.700000X1.700000*%
%TD*%
%TA.AperFunction,ComponentPad*%
%ADD11O,1.700000X1.700000*%
%TD*%
%TA.AperFunction,ComponentPad*%
%ADD12R,1.218000X1.218000*%
%TD*%
%TA.AperFunction,ComponentPad*%
%ADD13C,1.218000*%
%TD*%
%TA.AperFunction,ViaPad*%
%ADD14C,0.800000*%
%TD*%
%TA.AperFunction,Conductor*%
%ADD15C,1.600000*%
%TD*%
%TA.AperFunction,Conductor*%
%ADD16C,0.350000*%
%TD*%
G04 APERTURE END LIST*
D10*
%TO.P,J1,1,Pin_1*%
%TO.N,GND*%
X100965000Y-110490000D03*
D11*
%TO.P,J1,2,Pin_2*%
%TO.N,Net-(J1-Pad2)*%
X100965000Y-113030000D03*
%TO.P,J1,3,Pin_3*%
%TO.N,Net-(J1-Pad3)*%
X100965000Y-115570000D03*
%TO.P,J1,4,Pin_4*%
%TO.N,Net-(J1-Pad4)*%
X100965000Y-118110000D03*
%TO.P,J1,5,Pin_5*%
%TO.N,+5V*%
X100965000Y-120650000D03*
%TO.P,J1,6,Pin_6*%
%TO.N,VCC*%
X100965000Y-123190000D03*
%TD*%
D10*
%TO.P,J2,1,Pin_1*%
%TO.N,VCC*%
X109855000Y-123190000D03*
D11*
%TO.P,J2,2,Pin_2*%
%TO.N,+5V*%
X109855000Y-120650000D03*
%TO.P,J2,3,Pin_3*%
%TO.N,Net-(J2-Pad3)*%
X109855000Y-118110000D03*
%TO.P,J2,4,Pin_4*%
%TO.N,Net-(J1-Pad3)*%
X109855000Y-115570000D03*
%TO.P,J2,5,Pin_5*%
%TO.N,Net-(J1-Pad2)*%
X109855000Y-113030000D03*
%TO.P,J2,6,Pin_6*%
%TO.N,GND*%
X109855000Y-110490000D03*
%TD*%
D12*
%TO.P,U2,1*%
%TO.N,VCC*%
X110490000Y-132428500D03*
D13*
%TO.P,U2,2*%
%TO.N,Net-(R6-Pad2)*%
X107950000Y-132428500D03*
%TO.P,U2,3*%
%TO.N,Net-(R5-Pad2)*%
X105410000Y-132428500D03*
%TO.P,U2,4*%
%TO.N,Net-(R4-Pad2)*%
X102870000Y-132428500D03*
%TO.P,U2,5*%
%TO.N,VCC*%
X100330000Y-132428500D03*
%TO.P,U2,6*%
%TO.N,Net-(R3-Pad2)*%
X100330000Y-84428500D03*
X100330000Y-72428500D03*
X100330000Y-92428500D03*
X100330000Y-53688500D03*
%TO.P,U2,7*%
%TO.N,Net-(R2-Pad2)*%
X102870000Y-84428500D03*
X102870000Y-53688500D03*
X102870000Y-72428500D03*
X102870000Y-92428500D03*
%TO.P,U2,8*%
%TO.N,Net-(R9-Pad2)*%
X105410000Y-84428500D03*
X105410000Y-53688500D03*
X105410000Y-72428500D03*
X105410000Y-92428500D03*
%TO.P,U2,9*%
%TO.N,Net-(R7-Pad2)*%
X107950000Y-53688500D03*
X107950000Y-92428500D03*
X107950000Y-72428500D03*
X107950000Y-84428500D03*
%TO.P,U2,10*%
%TO.N,Net-(R8-Pad2)*%
X110490000Y-84428500D03*
X110490000Y-92428500D03*
X110490000Y-72428500D03*
X110490000Y-53688500D03*
%TD*%
D14*
%TO.N,GND*%
X111125000Y-99695000D03*
X99695000Y-99060000D03*
X102235000Y-106045000D03*
%TO.N,Net-(J1-Pad4)*%
X101962100Y-101962100D03*
%TO.N,Net-(R3-Pad1)*%
X103505000Y-99695000D03*
X106855545Y-103045545D03*
%TO.N,Net-(R9-Pad1)*%
X106045000Y-99060000D03*
X107950000Y-100965000D03*
%TD*%
D15*
%TO.N,+5V*%
X100965000Y-120650000D02*
X109855000Y-120650000D01*
D16*
%TO.N,Net-(J1-Pad2)*%
X109855000Y-113030000D02*
X100965000Y-113030000D01*
%TO.N,Net-(J1-Pad3)*%
X109855000Y-115570000D02*
X100965000Y-115570000D01*
%TO.N,Net-(J1-Pad4)*%
X99620600Y-104303600D02*
X99620600Y-116765600D01*
X101962100Y-101962100D02*
X99620600Y-104303600D01*
X99620600Y-116765600D02*
X100965000Y-118110000D01*
D15*
%TO.N,VCC*%
X110490000Y-132428000D02*
X110490000Y-132428500D01*
X100965000Y-123190000D02*
X109855000Y-123190000D01*
X100330000Y-132428000D02*
X100330000Y-132428500D01*
X110490000Y-132428000D02*
X110490000Y-123825000D01*
X100330000Y-132428000D02*
X100330000Y-123825000D01*
X100330000Y-123825000D02*
X100965000Y-123190000D01*
X110490000Y-123825000D02*
X109855000Y-123190000D01*
D16*
%TO.N,Net-(R3-Pad1)*%
X106855545Y-103045545D02*
X103505000Y-99695000D01*
%TO.N,Net-(R9-Pad1)*%
X107950000Y-100965000D02*
X106045000Y-99060000D01*
%TD*%
%TA.AperFunction,Conductor*%
%TO.N,GND*%
G36*
X111828621Y-90825002D02*
G01*
X111875114Y-90878658D01*
X111886500Y-90931000D01*
X111886500Y-112904000D01*
X111866498Y-112972121D01*
X111812842Y-113018614D01*
X111760500Y-113030000D01*
X111334222Y-113030000D01*
X111266101Y-113009998D01*
X111219608Y-112956342D01*
X111208646Y-112914324D01*
X111200276Y-112812522D01*
X111199852Y-112807361D01*
X111145431Y-112590702D01*
X111056354Y-112385840D01*
X110935014Y-112198277D01*
X110784670Y-112033051D01*
X110780619Y-112029852D01*
X110780615Y-112029848D01*
X110613414Y-111897800D01*
X110613410Y-111897798D01*
X110609359Y-111894598D01*
X110567569Y-111871529D01*
X110517598Y-111821097D01*
X110502826Y-111751654D01*
X110527942Y-111685248D01*
X110555294Y-111658641D01*
X110730328Y-111533792D01*
X110738200Y-111527139D01*
X110889052Y-111376812D01*
X110895730Y-111368965D01*
X111020003Y-111196020D01*
X111025313Y-111187183D01*
X111119670Y-110996267D01*
X111123469Y-110986672D01*
X111185377Y-110782910D01*
X111187555Y-110772837D01*
X111188986Y-110761962D01*
X111186775Y-110747778D01*
X111173617Y-110744000D01*
X108538225Y-110744000D01*
X108524694Y-110747973D01*
X108523257Y-110757966D01*
X108553565Y-110892446D01*
X108556645Y-110902275D01*
X108636770Y-111099603D01*
X108641413Y-111108794D01*
X108752694Y-111290388D01*
X108758777Y-111298699D01*
X108898213Y-111459667D01*
X108905580Y-111466883D01*
X109069434Y-111602916D01*
X109077881Y-111608831D01*
X109146969Y-111649203D01*
X109195693Y-111700842D01*
X109208764Y-111770625D01*
X109182033Y-111836396D01*
X109141584Y-111869752D01*
X109128607Y-111876507D01*
X109124474Y-111879610D01*
X109124471Y-111879612D01*
X108954100Y-112007530D01*
X108949965Y-112010635D01*
X108795629Y-112172138D01*
X108792715Y-112176410D01*
X108792714Y-112176411D01*
X108714203Y-112291504D01*
X108659292Y-112336507D01*
X108610115Y-112346500D01*
X102209459Y-112346500D01*
X102141338Y-112326498D01*
X102103667Y-112288940D01*
X102047822Y-112202617D01*
X102047820Y-112202614D01*
X102045014Y-112198277D01*
X102041538Y-112194457D01*
X102041533Y-112194450D01*
X101897435Y-112036088D01*
X101866383Y-111972242D01*
X101874779Y-111901744D01*
X101919956Y-111846976D01*
X101946400Y-111833307D01*
X102053052Y-111793325D01*
X102068649Y-111784786D01*
X102170724Y-111708285D01*
X102183285Y-111695724D01*
X102259786Y-111593649D01*
X102268324Y-111578054D01*
X102313478Y-111457606D01*
X102317105Y-111442351D01*
X102322631Y-111391486D01*
X102323000Y-111384672D01*
X102323000Y-110762115D01*
X102318525Y-110746876D01*
X102317135Y-110745671D01*
X102309452Y-110744000D01*
X100837000Y-110744000D01*
X100768879Y-110723998D01*
X100722386Y-110670342D01*
X100711000Y-110618000D01*
X100711000Y-110217885D01*
X101219000Y-110217885D01*
X101223475Y-110233124D01*
X101224865Y-110234329D01*
X101232548Y-110236000D01*
X102304884Y-110236000D01*
X102320123Y-110231525D01*
X102321328Y-110230135D01*
X102322623Y-110224183D01*
X108519389Y-110224183D01*
X108520912Y-110232607D01*
X108533292Y-110236000D01*
X109582885Y-110236000D01*
X109598124Y-110231525D01*
X109599329Y-110230135D01*
X109601000Y-110222452D01*
X109601000Y-110217885D01*
X110109000Y-110217885D01*
X110113475Y-110233124D01*
X110114865Y-110234329D01*
X110122548Y-110236000D01*
X111173344Y-110236000D01*
X111186875Y-110232027D01*
X111188180Y-110222947D01*
X111146214Y-110055875D01*
X111142894Y-110046124D01*
X111057972Y-109850814D01*
X111053105Y-109841739D01*
X110937426Y-109662926D01*
X110931136Y-109654757D01*
X110787806Y-109497240D01*
X110780273Y-109490215D01*
X110613139Y-109358222D01*
X110604552Y-109352517D01*
X110418117Y-109249599D01*
X110408705Y-109245369D01*
X110207959Y-109174280D01*
X110197988Y-109171646D01*
X110126837Y-109158972D01*
X110113540Y-109160432D01*
X110109000Y-109174989D01*
X110109000Y-110217885D01*
X109601000Y-110217885D01*
X109601000Y-109173102D01*
X109597082Y-109159758D01*
X109582806Y-109157771D01*
X109544324Y-109163660D01*
X109534288Y-109166051D01*
X109331868Y-109232212D01*
X109322359Y-109236209D01*
X109133463Y-109334542D01*
X109124738Y-109340036D01*
X108954433Y-109467905D01*
X108946726Y-109474748D01*
X108799590Y-109628717D01*
X108793104Y-109636727D01*
X108673098Y-109812649D01*
X108668000Y-109821623D01*
X108578338Y-110014783D01*
X108574775Y-110024470D01*
X108519389Y-110224183D01*
X102322623Y-110224183D01*
X102322999Y-110222452D01*
X102322999Y-109595331D01*
X102322629Y-109588510D01*
X102317105Y-109537648D01*
X102313479Y-109522396D01*
X102268324Y-109401946D01*
X102259786Y-109386351D01*
X102183285Y-109284276D01*
X102170724Y-109271715D01*
X102068649Y-109195214D01*
X102053054Y-109186676D01*
X101932606Y-109141522D01*
X101917351Y-109137895D01*
X101866486Y-109132369D01*
X101859672Y-109132000D01*
X101237115Y-109132000D01*
X101221876Y-109136475D01*
X101220671Y-109137865D01*
X101219000Y-109145548D01*
X101219000Y-110217885D01*
X100711000Y-110217885D01*
X100711000Y-109150116D01*
X100706525Y-109134877D01*
X100705135Y-109133672D01*
X100697452Y-109132001D01*
X100430100Y-109132001D01*
X100361979Y-109111999D01*
X100315486Y-109058343D01*
X100304100Y-109006001D01*
X100304100Y-104638905D01*
X100324102Y-104570784D01*
X100341005Y-104549810D01*
X101985050Y-102905765D01*
X102047362Y-102871739D01*
X102054446Y-102870600D01*
X102057587Y-102870600D01*
X102064040Y-102869228D01*
X102064043Y-102869228D01*
X102128076Y-102855617D01*
X102244388Y-102830894D01*
X102250419Y-102828209D01*
X102412822Y-102755903D01*
X102412824Y-102755902D01*
X102418852Y-102753218D01*
X102573353Y-102640966D01*
X102577775Y-102636055D01*
X102696721Y-102503952D01*
X102696722Y-102503951D01*
X102701140Y-102499044D01*
X102796627Y-102333656D01*
X102855642Y-102152028D01*
X102857107Y-102138095D01*
X102874914Y-101968665D01*
X102875604Y-101962100D01*
X102866148Y-101872128D01*
X102856332Y-101778735D01*
X102856332Y-101778733D01*
X102855642Y-101772172D01*
X102796627Y-101590544D01*
X102701140Y-101425156D01*
X102573353Y-101283234D01*
X102418852Y-101170982D01*
X102412824Y-101168298D01*
X102412822Y-101168297D01*
X102250419Y-101095991D01*
X102250418Y-101095991D01*
X102244388Y-101093306D01*
X102128735Y-101068723D01*
X102064044Y-101054972D01*
X102064039Y-101054972D01*
X102057587Y-101053600D01*
X101866613Y-101053600D01*
X101860161Y-101054972D01*
X101860156Y-101054972D01*
X101795465Y-101068723D01*
X101679812Y-101093306D01*
X101673782Y-101095991D01*
X101673781Y-101095991D01*
X101511378Y-101168297D01*
X101511376Y-101168298D01*
X101505348Y-101170982D01*
X101350847Y-101283234D01*
X101223060Y-101425156D01*
X101127573Y-101590544D01*
X101068558Y-101772172D01*
X101062082Y-101833794D01*
X101059498Y-101858377D01*
X101032485Y-101924034D01*
X101023283Y-101934302D01*
X99157141Y-103800444D01*
X99150874Y-103806299D01*
X99142328Y-103813754D01*
X99077846Y-103843461D01*
X99007539Y-103833591D01*
X98953729Y-103787276D01*
X98933500Y-103718804D01*
X98933500Y-99695000D01*
X102591496Y-99695000D01*
X102592186Y-99701565D01*
X102608187Y-99853803D01*
X102611458Y-99884928D01*
X102670473Y-100066556D01*
X102765960Y-100231944D01*
X102770378Y-100236851D01*
X102770379Y-100236852D01*
X102814753Y-100286134D01*
X102893747Y-100373866D01*
X103048248Y-100486118D01*
X103054276Y-100488802D01*
X103054278Y-100488803D01*
X103216681Y-100561109D01*
X103222712Y-100563794D01*
X103335279Y-100587721D01*
X103403057Y-100602128D01*
X103403060Y-100602128D01*
X103407782Y-100603132D01*
X103409513Y-100603500D01*
X103409446Y-100603817D01*
X103471781Y-100629462D01*
X103482050Y-100638665D01*
X105916728Y-103073343D01*
X105950754Y-103135655D01*
X105952942Y-103149264D01*
X105962003Y-103235473D01*
X106021018Y-103417101D01*
X106116505Y-103582489D01*
X106244292Y-103724411D01*
X106330818Y-103787276D01*
X106367262Y-103813754D01*
X106398793Y-103836663D01*
X106404821Y-103839347D01*
X106404823Y-103839348D01*
X106531898Y-103895925D01*
X106573257Y-103914339D01*
X106666657Y-103934192D01*
X106753601Y-103952673D01*
X106753606Y-103952673D01*
X106760058Y-103954045D01*
X106951032Y-103954045D01*
X106957484Y-103952673D01*
X106957489Y-103952673D01*
X107044432Y-103934192D01*
X107137833Y-103914339D01*
X107179192Y-103895925D01*
X107306267Y-103839348D01*
X107306269Y-103839347D01*
X107312297Y-103836663D01*
X107343829Y-103813754D01*
X107380272Y-103787276D01*
X107466798Y-103724411D01*
X107594585Y-103582489D01*
X107690072Y-103417101D01*
X107749087Y-103235473D01*
X107758148Y-103149268D01*
X107768359Y-103052110D01*
X107769049Y-103045545D01*
X107754358Y-102905765D01*
X107749777Y-102862180D01*
X107749777Y-102862178D01*
X107749087Y-102855617D01*
X107690072Y-102673989D01*
X107594585Y-102508601D01*
X107580832Y-102493326D01*
X107471220Y-102371590D01*
X107471219Y-102371589D01*
X107466798Y-102366679D01*
X107312297Y-102254427D01*
X107306269Y-102251743D01*
X107306267Y-102251742D01*
X107143864Y-102179436D01*
X107143863Y-102179436D01*
X107137833Y-102176751D01*
X106990645Y-102145465D01*
X106957488Y-102138417D01*
X106957485Y-102138417D01*
X106951032Y-102137045D01*
X106951099Y-102136728D01*
X106888764Y-102111083D01*
X106878495Y-102101880D01*
X104443817Y-99667202D01*
X104409791Y-99604890D01*
X104407602Y-99591277D01*
X104399232Y-99511635D01*
X104399232Y-99511633D01*
X104398542Y-99505072D01*
X104339527Y-99323444D01*
X104244040Y-99158056D01*
X104155750Y-99060000D01*
X105131496Y-99060000D01*
X105151458Y-99249928D01*
X105210473Y-99431556D01*
X105305960Y-99596944D01*
X105310378Y-99601851D01*
X105310379Y-99601852D01*
X105388339Y-99688435D01*
X105433747Y-99738866D01*
X105588248Y-99851118D01*
X105594276Y-99853802D01*
X105594278Y-99853803D01*
X105756681Y-99926109D01*
X105762712Y-99928794D01*
X105880487Y-99953828D01*
X105943057Y-99967128D01*
X105943060Y-99967128D01*
X105947782Y-99968132D01*
X105949513Y-99968500D01*
X105949446Y-99968817D01*
X106011781Y-99994462D01*
X106022050Y-100003665D01*
X107011183Y-100992798D01*
X107045209Y-101055110D01*
X107047397Y-101068719D01*
X107056458Y-101154928D01*
X107115473Y-101336556D01*
X107210960Y-101501944D01*
X107338747Y-101643866D01*
X107493248Y-101756118D01*
X107499276Y-101758802D01*
X107499278Y-101758803D01*
X107661681Y-101831109D01*
X107667712Y-101833794D01*
X107761112Y-101853647D01*
X107848056Y-101872128D01*
X107848061Y-101872128D01*
X107854513Y-101873500D01*
X108045487Y-101873500D01*
X108051939Y-101872128D01*
X108051944Y-101872128D01*
X108138887Y-101853647D01*
X108232288Y-101833794D01*
X108238319Y-101831109D01*
X108400722Y-101758803D01*
X108400724Y-101758802D01*
X108406752Y-101756118D01*
X108561253Y-101643866D01*
X108689040Y-101501944D01*
X108784527Y-101336556D01*
X108843542Y-101154928D01*
X108849737Y-101095991D01*
X108862814Y-100971565D01*
X108863504Y-100965000D01*
X108843542Y-100775072D01*
X108784527Y-100593444D01*
X108689040Y-100428056D01*
X108643744Y-100377749D01*
X108565675Y-100291045D01*
X108565674Y-100291044D01*
X108561253Y-100286134D01*
X108406752Y-100173882D01*
X108400724Y-100171198D01*
X108400722Y-100171197D01*
X108238319Y-100098891D01*
X108238318Y-100098891D01*
X108232288Y-100096206D01*
X108114513Y-100071172D01*
X108051943Y-100057872D01*
X108051940Y-100057872D01*
X108045487Y-100056500D01*
X108045554Y-100056183D01*
X107983219Y-100030538D01*
X107972950Y-100021335D01*
X106983817Y-99032202D01*
X106949791Y-98969890D01*
X106947602Y-98956277D01*
X106939232Y-98876635D01*
X106939232Y-98876633D01*
X106938542Y-98870072D01*
X106879527Y-98688444D01*
X106784040Y-98523056D01*
X106656253Y-98381134D01*
X106501752Y-98268882D01*
X106495724Y-98266198D01*
X106495722Y-98266197D01*
X106333319Y-98193891D01*
X106333318Y-98193891D01*
X106327288Y-98191206D01*
X106233888Y-98171353D01*
X106146944Y-98152872D01*
X106146939Y-98152872D01*
X106140487Y-98151500D01*
X105949513Y-98151500D01*
X105943061Y-98152872D01*
X105943056Y-98152872D01*
X105856112Y-98171353D01*
X105762712Y-98191206D01*
X105756682Y-98193891D01*
X105756681Y-98193891D01*
X105594278Y-98266197D01*
X105594276Y-98266198D01*
X105588248Y-98268882D01*
X105433747Y-98381134D01*
X105305960Y-98523056D01*
X105210473Y-98688444D01*
X105151458Y-98870072D01*
X105150768Y-98876633D01*
X105150768Y-98876635D01*
X105140967Y-98969890D01*
X105131496Y-99060000D01*
X104155750Y-99060000D01*
X104116253Y-99016134D01*
X103961752Y-98903882D01*
X103955724Y-98901198D01*
X103955722Y-98901197D01*
X103793319Y-98828891D01*
X103793318Y-98828891D01*
X103787288Y-98826206D01*
X103693888Y-98806353D01*
X103606944Y-98787872D01*
X103606939Y-98787872D01*
X103600487Y-98786500D01*
X103409513Y-98786500D01*
X103403061Y-98787872D01*
X103403056Y-98787872D01*
X103316113Y-98806353D01*
X103222712Y-98826206D01*
X103216682Y-98828891D01*
X103216681Y-98828891D01*
X103054278Y-98901197D01*
X103054276Y-98901198D01*
X103048248Y-98903882D01*
X102893747Y-99016134D01*
X102765960Y-99158056D01*
X102670473Y-99323444D01*
X102611458Y-99505072D01*
X102610768Y-99511633D01*
X102610768Y-99511635D01*
X102601802Y-99596944D01*
X102591496Y-99695000D01*
X98933500Y-99695000D01*
X98933500Y-92399122D01*
X99208098Y-92399122D01*
X99221530Y-92604064D01*
X99222952Y-92609662D01*
X99222952Y-92609664D01*
X99270665Y-92797532D01*
X99272086Y-92803127D01*
X99358071Y-92989643D01*
X99476606Y-93157367D01*
X99623722Y-93300681D01*
X99628518Y-93303886D01*
X99628521Y-93303888D01*
X99764975Y-93395063D01*
X99794491Y-93414785D01*
X99799794Y-93417063D01*
X99799797Y-93417065D01*
X99977887Y-93493578D01*
X99983194Y-93495858D01*
X100080693Y-93517920D01*
X100177876Y-93539911D01*
X100177879Y-93539911D01*
X100183512Y-93541186D01*
X100189283Y-93541413D01*
X100189285Y-93541413D01*
X100252647Y-93543902D01*
X100388736Y-93549249D01*
X100508384Y-93531901D01*
X100586271Y-93520608D01*
X100586275Y-93520607D01*
X100591993Y-93519778D01*
X100597465Y-93517920D01*
X100597467Y-93517920D01*
X100781011Y-93455615D01*
X100781013Y-93455614D01*
X100786475Y-93453760D01*
X100965670Y-93353406D01*
X101123577Y-93222077D01*
X101254906Y-93064170D01*
X101355260Y-92884975D01*
X101421278Y-92690493D01*
X101450749Y-92487236D01*
X101452287Y-92428500D01*
X101449588Y-92399122D01*
X101748098Y-92399122D01*
X101761530Y-92604064D01*
X101762952Y-92609662D01*
X101762952Y-92609664D01*
X101810665Y-92797532D01*
X101812086Y-92803127D01*
X101898071Y-92989643D01*
X102016606Y-93157367D01*
X102163722Y-93300681D01*
X102168518Y-93303886D01*
X102168521Y-93303888D01*
X102304975Y-93395063D01*
X102334491Y-93414785D01*
X102339794Y-93417063D01*
X102339797Y-93417065D01*
X102517887Y-93493578D01*
X102523194Y-93495858D01*
X102620693Y-93517920D01*
X102717876Y-93539911D01*
X102717879Y-93539911D01*
X102723512Y-93541186D01*
X102729283Y-93541413D01*
X102729285Y-93541413D01*
X102792647Y-93543902D01*
X102928736Y-93549249D01*
X103048384Y-93531901D01*
X103126271Y-93520608D01*
X103126275Y-93520607D01*
X103131993Y-93519778D01*
X103137465Y-93517920D01*
X103137467Y-93517920D01*
X103321011Y-93455615D01*
X103321013Y-93455614D01*
X103326475Y-93453760D01*
X103505670Y-93353406D01*
X103663577Y-93222077D01*
X103794906Y-93064170D01*
X103895260Y-92884975D01*
X103961278Y-92690493D01*
X103990749Y-92487236D01*
X103992287Y-92428500D01*
X103989588Y-92399122D01*
X104288098Y-92399122D01*
X104301530Y-92604064D01*
X104302952Y-92609662D01*
X104302952Y-92609664D01*
X104350665Y-92797532D01*
X104352086Y-92803127D01*
X104438071Y-92989643D01*
X104556606Y-93157367D01*
X104703722Y-93300681D01*
X104708518Y-93303886D01*
X104708521Y-93303888D01*
X104844975Y-93395063D01*
X104874491Y-93414785D01*
X104879794Y-93417063D01*
X104879797Y-93417065D01*
X105057887Y-93493578D01*
X105063194Y-93495858D01*
X105160693Y-93517920D01*
X105257876Y-93539911D01*
X105257879Y-93539911D01*
X105263512Y-93541186D01*
X105269283Y-93541413D01*
X105269285Y-93541413D01*
X105332647Y-93543902D01*
X105468736Y-93549249D01*
X105588384Y-93531901D01*
X105666271Y-93520608D01*
X105666275Y-93520607D01*
X105671993Y-93519778D01*
X105677465Y-93517920D01*
X105677467Y-93517920D01*
X105861011Y-93455615D01*
X105861013Y-93455614D01*
X105866475Y-93453760D01*
X106045670Y-93353406D01*
X106203577Y-93222077D01*
X106334906Y-93064170D01*
X106435260Y-92884975D01*
X106501278Y-92690493D01*
X106530749Y-92487236D01*
X106532287Y-92428500D01*
X106529588Y-92399122D01*
X106828098Y-92399122D01*
X106841530Y-92604064D01*
X106842952Y-92609662D01*
X106842952Y-92609664D01*
X106890665Y-92797532D01*
X106892086Y-92803127D01*
X106978071Y-92989643D01*
X107096606Y-93157367D01*
X107243722Y-93300681D01*
X107248518Y-93303886D01*
X107248521Y-93303888D01*
X107384975Y-93395063D01*
X107414491Y-93414785D01*
X107419794Y-93417063D01*
X107419797Y-93417065D01*
X107597887Y-93493578D01*
X107603194Y-93495858D01*
X107700693Y-93517920D01*
X107797876Y-93539911D01*
X107797879Y-93539911D01*
X107803512Y-93541186D01*
X107809283Y-93541413D01*
X107809285Y-93541413D01*
X107872647Y-93543902D01*
X108008736Y-93549249D01*
X108128384Y-93531901D01*
X108206271Y-93520608D01*
X108206275Y-93520607D01*
X108211993Y-93519778D01*
X108217465Y-93517920D01*
X108217467Y-93517920D01*
X108401011Y-93455615D01*
X108401013Y-93455614D01*
X108406475Y-93453760D01*
X108585670Y-93353406D01*
X108743577Y-93222077D01*
X108874906Y-93064170D01*
X108975260Y-92884975D01*
X109041278Y-92690493D01*
X109070749Y-92487236D01*
X109072287Y-92428500D01*
X109069588Y-92399122D01*
X109368098Y-92399122D01*
X109381530Y-92604064D01*
X109382952Y-92609662D01*
X109382952Y-92609664D01*
X109430665Y-92797532D01*
X109432086Y-92803127D01*
X109518071Y-92989643D01*
X109636606Y-93157367D01*
X109783722Y-93300681D01*
X109788518Y-93303886D01*
X109788521Y-93303888D01*
X109924975Y-93395063D01*
X109954491Y-93414785D01*
X109959794Y-93417063D01*
X109959797Y-93417065D01*
X110137887Y-93493578D01*
X110143194Y-93495858D01*
X110240693Y-93517920D01*
X110337876Y-93539911D01*
X110337879Y-93539911D01*
X110343512Y-93541186D01*
X110349283Y-93541413D01*
X110349285Y-93541413D01*
X110412647Y-93543902D01*
X110548736Y-93549249D01*
X110668384Y-93531901D01*
X110746271Y-93520608D01*
X110746275Y-93520607D01*
X110751993Y-93519778D01*
X110757465Y-93517920D01*
X110757467Y-93517920D01*
X110941011Y-93455615D01*
X110941013Y-93455614D01*
X110946475Y-93453760D01*
X111125670Y-93353406D01*
X111283577Y-93222077D01*
X111414906Y-93064170D01*
X111515260Y-92884975D01*
X111581278Y-92690493D01*
X111610749Y-92487236D01*
X111612287Y-92428500D01*
X111593494Y-92223979D01*
X111537745Y-92026308D01*
X111446907Y-91842107D01*
X111324022Y-91677543D01*
X111319786Y-91673627D01*
X111177446Y-91542050D01*
X111177444Y-91542048D01*
X111173205Y-91538130D01*
X110999508Y-91428535D01*
X110994148Y-91426397D01*
X110994145Y-91426395D01*
X110814111Y-91354569D01*
X110808747Y-91352429D01*
X110803087Y-91351303D01*
X110803083Y-91351302D01*
X110612978Y-91313488D01*
X110612976Y-91313488D01*
X110607311Y-91312361D01*
X110601536Y-91312285D01*
X110601532Y-91312285D01*
X110499029Y-91310944D01*
X110401946Y-91309673D01*
X110396249Y-91310652D01*
X110396248Y-91310652D01*
X110205228Y-91343475D01*
X110199531Y-91344454D01*
X110006843Y-91415540D01*
X110001882Y-91418492D01*
X110001881Y-91418492D01*
X109835304Y-91517595D01*
X109835301Y-91517597D01*
X109830336Y-91520551D01*
X109825996Y-91524357D01*
X109825992Y-91524360D01*
X109805821Y-91542050D01*
X109675922Y-91655969D01*
X109672347Y-91660504D01*
X109672346Y-91660505D01*
X109658914Y-91677543D01*
X109548771Y-91817259D01*
X109546082Y-91822370D01*
X109546080Y-91822373D01*
X109532972Y-91847288D01*
X109453142Y-91999019D01*
X109392238Y-92195163D01*
X109368098Y-92399122D01*
X109069588Y-92399122D01*
X109053494Y-92223979D01*
X108997745Y-92026308D01*
X108906907Y-91842107D01*
X108784022Y-91677543D01*
X108779786Y-91673627D01*
X108637446Y-91542050D01*
X108637444Y-91542048D01*
X108633205Y-91538130D01*
X108459508Y-91428535D01*
X108454148Y-91426397D01*
X108454145Y-91426395D01*
X108274111Y-91354569D01*
X108268747Y-91352429D01*
X108263087Y-91351303D01*
X108263083Y-91351302D01*
X108072978Y-91313488D01*
X108072976Y-91313488D01*
X108067311Y-91312361D01*
X108061536Y-91312285D01*
X108061532Y-91312285D01*
X107959029Y-91310944D01*
X107861946Y-91309673D01*
X107856249Y-91310652D01*
X107856248Y-91310652D01*
X107665228Y-91343475D01*
X107659531Y-91344454D01*
X107466843Y-91415540D01*
X107461882Y-91418492D01*
X107461881Y-91418492D01*
X107295304Y-91517595D01*
X107295301Y-91517597D01*
X107290336Y-91520551D01*
X107285996Y-91524357D01*
X107285992Y-91524360D01*
X107265821Y-91542050D01*
X107135922Y-91655969D01*
X107132347Y-91660504D01*
X107132346Y-91660505D01*
X107118914Y-91677543D01*
X107008771Y-91817259D01*
X107006082Y-91822370D01*
X107006080Y-91822373D01*
X106992972Y-91847288D01*
X106913142Y-91999019D01*
X106852238Y-92195163D01*
X106828098Y-92399122D01*
X106529588Y-92399122D01*
X106513494Y-92223979D01*
X106457745Y-92026308D01*
X106366907Y-91842107D01*
X106244022Y-91677543D01*
X106239786Y-91673627D01*
X106097446Y-91542050D01*
X106097444Y-91542048D01*
X106093205Y-91538130D01*
X105919508Y-91428535D01*
X105914148Y-91426397D01*
X105914145Y-91426395D01*
X105734111Y-91354569D01*
X105728747Y-91352429D01*
X105723087Y-91351303D01*
X105723083Y-91351302D01*
X105532978Y-91313488D01*
X105532976Y-91313488D01*
X105527311Y-91312361D01*
X105521536Y-91312285D01*
X105521532Y-91312285D01*
X105419029Y-91310944D01*
X105321946Y-91309673D01*
X105316249Y-91310652D01*
X105316248Y-91310652D01*
X105125228Y-91343475D01*
X105119531Y-91344454D01*
X104926843Y-91415540D01*
X104921882Y-91418492D01*
X104921881Y-91418492D01*
X104755304Y-91517595D01*
X104755301Y-91517597D01*
X104750336Y-91520551D01*
X104745996Y-91524357D01*
X104745992Y-91524360D01*
X104725821Y-91542050D01*
X104595922Y-91655969D01*
X104592347Y-91660504D01*
X104592346Y-91660505D01*
X104578914Y-91677543D01*
X104468771Y-91817259D01*
X104466082Y-91822370D01*
X104466080Y-91822373D01*
X104452972Y-91847288D01*
X104373142Y-91999019D01*
X104312238Y-92195163D01*
X104288098Y-92399122D01*
X103989588Y-92399122D01*
X103973494Y-92223979D01*
X103917745Y-92026308D01*
X103826907Y-91842107D01*
X103704022Y-91677543D01*
X103699786Y-91673627D01*
X103557446Y-91542050D01*
X103557444Y-91542048D01*
X103553205Y-91538130D01*
X103379508Y-91428535D01*
X103374148Y-91426397D01*
X103374145Y-91426395D01*
X103194111Y-91354569D01*
X103188747Y-91352429D01*
X103183087Y-91351303D01*
X103183083Y-91351302D01*
X102992978Y-91313488D01*
X102992976Y-91313488D01*
X102987311Y-91312361D01*
X102981536Y-91312285D01*
X102981532Y-91312285D01*
X102879029Y-91310944D01*
X102781946Y-91309673D01*
X102776249Y-91310652D01*
X102776248Y-91310652D01*
X102585228Y-91343475D01*
X102579531Y-91344454D01*
X102386843Y-91415540D01*
X102381882Y-91418492D01*
X102381881Y-91418492D01*
X102215304Y-91517595D01*
X102215301Y-91517597D01*
X102210336Y-91520551D01*
X102205996Y-91524357D01*
X102205992Y-91524360D01*
X102185821Y-91542050D01*
X102055922Y-91655969D01*
X102052347Y-91660504D01*
X102052346Y-91660505D01*
X102038914Y-91677543D01*
X101928771Y-91817259D01*
X101926082Y-91822370D01*
X101926080Y-91822373D01*
X101912972Y-91847288D01*
X101833142Y-91999019D01*
X101772238Y-92195163D01*
X101748098Y-92399122D01*
X101449588Y-92399122D01*
X101433494Y-92223979D01*
X101377745Y-92026308D01*
X101286907Y-91842107D01*
X101164022Y-91677543D01*
X101159786Y-91673627D01*
X101017446Y-91542050D01*
X101017444Y-91542048D01*
X101013205Y-91538130D01*
X100839508Y-91428535D01*
X100834148Y-91426397D01*
X100834145Y-91426395D01*
X100654111Y-91354569D01*
X100648747Y-91352429D01*
X100643087Y-91351303D01*
X100643083Y-91351302D01*
X100452978Y-91313488D01*
X100452976Y-91313488D01*
X100447311Y-91312361D01*
X100441536Y-91312285D01*
X100441532Y-91312285D01*
X100339029Y-91310944D01*
X100241946Y-91309673D01*
X100236249Y-91310652D01*
X100236248Y-91310652D01*
X100045228Y-91343475D01*
X100039531Y-91344454D01*
X99846843Y-91415540D01*
X99841882Y-91418492D01*
X99841881Y-91418492D01*
X99675304Y-91517595D01*
X99675301Y-91517597D01*
X99670336Y-91520551D01*
X99665996Y-91524357D01*
X99665992Y-91524360D01*
X99645821Y-91542050D01*
X99515922Y-91655969D01*
X99512347Y-91660504D01*
X99512346Y-91660505D01*
X99498914Y-91677543D01*
X99388771Y-91817259D01*
X99386082Y-91822370D01*
X99386080Y-91822373D01*
X99372972Y-91847288D01*
X99293142Y-91999019D01*
X99232238Y-92195163D01*
X99208098Y-92399122D01*
X98933500Y-92399122D01*
X98933500Y-90931000D01*
X98953502Y-90862879D01*
X99007158Y-90816386D01*
X99059500Y-90805000D01*
X111760500Y-90805000D01*
X111828621Y-90825002D01*
G37*
%TD.AperFunction*%
%TD*%
M02*
