G04 #@! TF.GenerationSoftware,KiCad,Pcbnew,6.0.11*
G04 #@! TF.CreationDate,2024-08-01T21:02:41+01:00*
G04 #@! TF.ProjectId,7Backpack,37426163-6b70-4616-936b-2e6b69636164,rev?*
G04 #@! TF.SameCoordinates,Original*
G04 #@! TF.FileFunction,Legend,Bot*
G04 #@! TF.FilePolarity,Positive*
%FSLAX46Y46*%
G04 Gerber Fmt 4.6, Leading zero omitted, Abs format (unit mm)*
G04 Created by KiCad (PCBNEW 6.0.11) date 2024-08-01 21:02:41*
%MOMM*%
%LPD*%
G01*
G04 APERTURE LIST*
G04 Aperture macros list*
%AMRoundRect*
0 Rectangle with rounded corners*
0 $1 Rounding radius*
0 $2 $3 $4 $5 $6 $7 $8 $9 X,Y pos of 4 corners*
0 Add a 4 corners polygon primitive as box body*
4,1,4,$2,$3,$4,$5,$6,$7,$8,$9,$2,$3,0*
0 Add four circle primitives for the rounded corners*
1,1,$1+$1,$2,$3*
1,1,$1+$1,$4,$5*
1,1,$1+$1,$6,$7*
1,1,$1+$1,$8,$9*
0 Add four rect primitives between the rounded corners*
20,1,$1+$1,$2,$3,$4,$5,0*
20,1,$1+$1,$4,$5,$6,$7,0*
20,1,$1+$1,$6,$7,$8,$9,0*
20,1,$1+$1,$8,$9,$2,$3,0*%
G04 Aperture macros list end*
%ADD10C,0.120000*%
%ADD11C,0.250000*%
%ADD12C,0.150000*%
%ADD13C,0.127000*%
%ADD14C,0.200000*%
%ADD15R,1.700000X1.700000*%
%ADD16O,1.700000X1.700000*%
%ADD17RoundRect,0.102000X0.609000X-0.609000X0.609000X0.609000X-0.609000X0.609000X-0.609000X-0.609000X0*%
%ADD18C,1.422000*%
G04 APERTURE END LIST*
D10*
X111723788Y-130194833D02*
X111757121Y-130161500D01*
X111823788Y-130061500D01*
X111857121Y-129994833D01*
X111890454Y-129894833D01*
X111923788Y-129728166D01*
X111923788Y-129594833D01*
X111890454Y-129428166D01*
X111857121Y-129328166D01*
X111823788Y-129261500D01*
X111757121Y-129161500D01*
X111723788Y-129128166D01*
X111157121Y-129894833D02*
X111223788Y-129928166D01*
X111357121Y-129928166D01*
X111423788Y-129894833D01*
X111457121Y-129861500D01*
X111490454Y-129794833D01*
X111490454Y-129594833D01*
X111457121Y-129528166D01*
X111423788Y-129494833D01*
X111357121Y-129461500D01*
X111223788Y-129461500D01*
X111157121Y-129494833D01*
X110557121Y-129894833D02*
X110623788Y-129928166D01*
X110757121Y-129928166D01*
X110823788Y-129894833D01*
X110857121Y-129861500D01*
X110890454Y-129794833D01*
X110890454Y-129594833D01*
X110857121Y-129528166D01*
X110823788Y-129494833D01*
X110757121Y-129461500D01*
X110623788Y-129461500D01*
X110557121Y-129494833D01*
X110323788Y-130194833D02*
X110290454Y-130161500D01*
X110223788Y-130061500D01*
X110190454Y-129994833D01*
X110157121Y-129894833D01*
X110123788Y-129728166D01*
X110123788Y-129594833D01*
X110157121Y-129428166D01*
X110190454Y-129328166D01*
X110223788Y-129261500D01*
X110290454Y-129161500D01*
X110323788Y-129128166D01*
X109023788Y-129561500D02*
X108923788Y-129594833D01*
X108890454Y-129628166D01*
X108857121Y-129694833D01*
X108857121Y-129794833D01*
X108890454Y-129861500D01*
X108923788Y-129894833D01*
X108990454Y-129928166D01*
X109257121Y-129928166D01*
X109257121Y-129228166D01*
X109023788Y-129228166D01*
X108957121Y-129261500D01*
X108923788Y-129294833D01*
X108890454Y-129361500D01*
X108890454Y-129428166D01*
X108923788Y-129494833D01*
X108957121Y-129528166D01*
X109023788Y-129561500D01*
X109257121Y-129561500D01*
X108423788Y-129594833D02*
X108423788Y-129928166D01*
X108657121Y-129228166D02*
X108423788Y-129594833D01*
X108190454Y-129228166D01*
X107957121Y-129661500D02*
X107423788Y-129661500D01*
X107090454Y-129928166D02*
X107090454Y-129228166D01*
X106690454Y-129928166D01*
X106690454Y-129228166D01*
X105957121Y-129861500D02*
X105990454Y-129894833D01*
X106090454Y-129928166D01*
X106157121Y-129928166D01*
X106257121Y-129894833D01*
X106323788Y-129828166D01*
X106357121Y-129761500D01*
X106390454Y-129628166D01*
X106390454Y-129528166D01*
X106357121Y-129394833D01*
X106323788Y-129328166D01*
X106257121Y-129261500D01*
X106157121Y-129228166D01*
X106090454Y-129228166D01*
X105990454Y-129261500D01*
X105957121Y-129294833D01*
X105657121Y-129661500D02*
X105123788Y-129661500D01*
X104823788Y-129894833D02*
X104723788Y-129928166D01*
X104557121Y-129928166D01*
X104490454Y-129894833D01*
X104457121Y-129861500D01*
X104423788Y-129794833D01*
X104423788Y-129728166D01*
X104457121Y-129661500D01*
X104490454Y-129628166D01*
X104557121Y-129594833D01*
X104690454Y-129561500D01*
X104757121Y-129528166D01*
X104790454Y-129494833D01*
X104823788Y-129428166D01*
X104823788Y-129361500D01*
X104790454Y-129294833D01*
X104757121Y-129261500D01*
X104690454Y-129228166D01*
X104523788Y-129228166D01*
X104423788Y-129261500D01*
X104157121Y-129728166D02*
X103823788Y-129728166D01*
X104223788Y-129928166D02*
X103990454Y-129228166D01*
X103757121Y-129928166D01*
X102990454Y-129661500D02*
X102457121Y-129661500D01*
X101623788Y-129294833D02*
X101590454Y-129261500D01*
X101523788Y-129228166D01*
X101357121Y-129228166D01*
X101290454Y-129261500D01*
X101257121Y-129294833D01*
X101223788Y-129361500D01*
X101223788Y-129428166D01*
X101257121Y-129528166D01*
X101657121Y-129928166D01*
X101223788Y-129928166D01*
X100790454Y-129228166D02*
X100723788Y-129228166D01*
X100657121Y-129261500D01*
X100623788Y-129294833D01*
X100590454Y-129361500D01*
X100557121Y-129494833D01*
X100557121Y-129661500D01*
X100590454Y-129794833D01*
X100623788Y-129861500D01*
X100657121Y-129894833D01*
X100723788Y-129928166D01*
X100790454Y-129928166D01*
X100857121Y-129894833D01*
X100890454Y-129861500D01*
X100923788Y-129794833D01*
X100957121Y-129661500D01*
X100957121Y-129494833D01*
X100923788Y-129361500D01*
X100890454Y-129294833D01*
X100857121Y-129261500D01*
X100790454Y-129228166D01*
X100290454Y-129294833D02*
X100257121Y-129261500D01*
X100190454Y-129228166D01*
X100023788Y-129228166D01*
X99957121Y-129261500D01*
X99923788Y-129294833D01*
X99890454Y-129361500D01*
X99890454Y-129428166D01*
X99923788Y-129528166D01*
X100323788Y-129928166D01*
X99890454Y-129928166D01*
X99290454Y-129461500D02*
X99290454Y-129928166D01*
X99457121Y-129194833D02*
X99623788Y-129694833D01*
X99190454Y-129694833D01*
X111673788Y-130588500D02*
X111540454Y-131055166D01*
X111407121Y-130721833D01*
X111273788Y-131055166D01*
X111140454Y-130588500D01*
X110940454Y-130588500D02*
X110807121Y-131055166D01*
X110673788Y-130721833D01*
X110540454Y-131055166D01*
X110407121Y-130588500D01*
X110207121Y-130588500D02*
X110073788Y-131055166D01*
X109940454Y-130721833D01*
X109807121Y-131055166D01*
X109673788Y-130588500D01*
X109407121Y-130988500D02*
X109373788Y-131021833D01*
X109407121Y-131055166D01*
X109440454Y-131021833D01*
X109407121Y-130988500D01*
X109407121Y-131055166D01*
X108773788Y-131055166D02*
X108773788Y-130688500D01*
X108807121Y-130621833D01*
X108873788Y-130588500D01*
X109007121Y-130588500D01*
X109073788Y-130621833D01*
X108773788Y-131021833D02*
X108840454Y-131055166D01*
X109007121Y-131055166D01*
X109073788Y-131021833D01*
X109107121Y-130955166D01*
X109107121Y-130888500D01*
X109073788Y-130821833D01*
X109007121Y-130788500D01*
X108840454Y-130788500D01*
X108773788Y-130755166D01*
X108140454Y-130588500D02*
X108140454Y-131155166D01*
X108173788Y-131221833D01*
X108207121Y-131255166D01*
X108273788Y-131288500D01*
X108373788Y-131288500D01*
X108440454Y-131255166D01*
X108140454Y-131021833D02*
X108207121Y-131055166D01*
X108340454Y-131055166D01*
X108407121Y-131021833D01*
X108440454Y-130988500D01*
X108473788Y-130921833D01*
X108473788Y-130721833D01*
X108440454Y-130655166D01*
X108407121Y-130621833D01*
X108340454Y-130588500D01*
X108207121Y-130588500D01*
X108140454Y-130621833D01*
X107807121Y-131055166D02*
X107807121Y-130588500D01*
X107807121Y-130355166D02*
X107840454Y-130388500D01*
X107807121Y-130421833D01*
X107773788Y-130388500D01*
X107807121Y-130355166D01*
X107807121Y-130421833D01*
X107173788Y-130588500D02*
X107173788Y-131055166D01*
X107473788Y-130588500D02*
X107473788Y-130955166D01*
X107440454Y-131021833D01*
X107373788Y-131055166D01*
X107273788Y-131055166D01*
X107207121Y-131021833D01*
X107173788Y-130988500D01*
X106873788Y-131021833D02*
X106807121Y-131055166D01*
X106673788Y-131055166D01*
X106607121Y-131021833D01*
X106573788Y-130955166D01*
X106573788Y-130921833D01*
X106607121Y-130855166D01*
X106673788Y-130821833D01*
X106773788Y-130821833D01*
X106840454Y-130788500D01*
X106873788Y-130721833D01*
X106873788Y-130688500D01*
X106840454Y-130621833D01*
X106773788Y-130588500D01*
X106673788Y-130588500D01*
X106607121Y-130621833D01*
X106273788Y-130788500D02*
X105740454Y-130788500D01*
X105407121Y-131055166D02*
X105407121Y-130588500D01*
X105407121Y-130355166D02*
X105440454Y-130388500D01*
X105407121Y-130421833D01*
X105373788Y-130388500D01*
X105407121Y-130355166D01*
X105407121Y-130421833D01*
X105073788Y-130588500D02*
X105073788Y-131055166D01*
X105073788Y-130655166D02*
X105040454Y-130621833D01*
X104973788Y-130588500D01*
X104873788Y-130588500D01*
X104807121Y-130621833D01*
X104773788Y-130688500D01*
X104773788Y-131055166D01*
X104140454Y-131055166D02*
X104140454Y-130355166D01*
X104140454Y-131021833D02*
X104207121Y-131055166D01*
X104340454Y-131055166D01*
X104407121Y-131021833D01*
X104440454Y-130988500D01*
X104473788Y-130921833D01*
X104473788Y-130721833D01*
X104440454Y-130655166D01*
X104407121Y-130621833D01*
X104340454Y-130588500D01*
X104207121Y-130588500D01*
X104140454Y-130621833D01*
X103507121Y-130588500D02*
X103507121Y-131055166D01*
X103807121Y-130588500D02*
X103807121Y-130955166D01*
X103773788Y-131021833D01*
X103707121Y-131055166D01*
X103607121Y-131055166D01*
X103540454Y-131021833D01*
X103507121Y-130988500D01*
X103207121Y-131021833D02*
X103140454Y-131055166D01*
X103007121Y-131055166D01*
X102940454Y-131021833D01*
X102907121Y-130955166D01*
X102907121Y-130921833D01*
X102940454Y-130855166D01*
X103007121Y-130821833D01*
X103107121Y-130821833D01*
X103173788Y-130788500D01*
X103207121Y-130721833D01*
X103207121Y-130688500D01*
X103173788Y-130621833D01*
X103107121Y-130588500D01*
X103007121Y-130588500D01*
X102940454Y-130621833D01*
X102707121Y-130588500D02*
X102440454Y-130588500D01*
X102607121Y-130355166D02*
X102607121Y-130955166D01*
X102573788Y-131021833D01*
X102507121Y-131055166D01*
X102440454Y-131055166D01*
X102207121Y-131055166D02*
X102207121Y-130588500D01*
X102207121Y-130721833D02*
X102173788Y-130655166D01*
X102140454Y-130621833D01*
X102073788Y-130588500D01*
X102007121Y-130588500D01*
X101773788Y-131055166D02*
X101773788Y-130588500D01*
X101773788Y-130355166D02*
X101807121Y-130388500D01*
X101773788Y-130421833D01*
X101740454Y-130388500D01*
X101773788Y-130355166D01*
X101773788Y-130421833D01*
X101173788Y-131021833D02*
X101240454Y-131055166D01*
X101373788Y-131055166D01*
X101440454Y-131021833D01*
X101473788Y-130955166D01*
X101473788Y-130688500D01*
X101440454Y-130621833D01*
X101373788Y-130588500D01*
X101240454Y-130588500D01*
X101173788Y-130621833D01*
X101140454Y-130688500D01*
X101140454Y-130755166D01*
X101473788Y-130821833D01*
X100873788Y-131021833D02*
X100807121Y-131055166D01*
X100673788Y-131055166D01*
X100607121Y-131021833D01*
X100573788Y-130955166D01*
X100573788Y-130921833D01*
X100607121Y-130855166D01*
X100673788Y-130821833D01*
X100773788Y-130821833D01*
X100840454Y-130788500D01*
X100873788Y-130721833D01*
X100873788Y-130688500D01*
X100840454Y-130621833D01*
X100773788Y-130588500D01*
X100673788Y-130588500D01*
X100607121Y-130621833D01*
X100273788Y-130988500D02*
X100240454Y-131021833D01*
X100273788Y-131055166D01*
X100307121Y-131021833D01*
X100273788Y-130988500D01*
X100273788Y-131055166D01*
X99673788Y-131021833D02*
X99740454Y-131055166D01*
X99873788Y-131055166D01*
X99940454Y-131021833D01*
X99973788Y-130955166D01*
X99973788Y-130688500D01*
X99940454Y-130621833D01*
X99873788Y-130588500D01*
X99740454Y-130588500D01*
X99673788Y-130621833D01*
X99640454Y-130688500D01*
X99640454Y-130755166D01*
X99973788Y-130821833D01*
X99040454Y-130588500D02*
X99040454Y-131055166D01*
X99340454Y-130588500D02*
X99340454Y-130955166D01*
X99307121Y-131021833D01*
X99240454Y-131055166D01*
X99140454Y-131055166D01*
X99073788Y-131021833D01*
X99040454Y-130988500D01*
D11*
X111219523Y-127087380D02*
X110552857Y-127087380D01*
X110981428Y-128087380D01*
X109838571Y-127563571D02*
X109695714Y-127611190D01*
X109648095Y-127658809D01*
X109600476Y-127754047D01*
X109600476Y-127896904D01*
X109648095Y-127992142D01*
X109695714Y-128039761D01*
X109790952Y-128087380D01*
X110171904Y-128087380D01*
X110171904Y-127087380D01*
X109838571Y-127087380D01*
X109743333Y-127135000D01*
X109695714Y-127182619D01*
X109648095Y-127277857D01*
X109648095Y-127373095D01*
X109695714Y-127468333D01*
X109743333Y-127515952D01*
X109838571Y-127563571D01*
X110171904Y-127563571D01*
X108743333Y-128087380D02*
X108743333Y-127563571D01*
X108790952Y-127468333D01*
X108886190Y-127420714D01*
X109076666Y-127420714D01*
X109171904Y-127468333D01*
X108743333Y-128039761D02*
X108838571Y-128087380D01*
X109076666Y-128087380D01*
X109171904Y-128039761D01*
X109219523Y-127944523D01*
X109219523Y-127849285D01*
X109171904Y-127754047D01*
X109076666Y-127706428D01*
X108838571Y-127706428D01*
X108743333Y-127658809D01*
X107838571Y-128039761D02*
X107933809Y-128087380D01*
X108124285Y-128087380D01*
X108219523Y-128039761D01*
X108267142Y-127992142D01*
X108314761Y-127896904D01*
X108314761Y-127611190D01*
X108267142Y-127515952D01*
X108219523Y-127468333D01*
X108124285Y-127420714D01*
X107933809Y-127420714D01*
X107838571Y-127468333D01*
X107410000Y-128087380D02*
X107410000Y-127087380D01*
X107314761Y-127706428D02*
X107029047Y-128087380D01*
X107029047Y-127420714D02*
X107410000Y-127801666D01*
X106600476Y-127420714D02*
X106600476Y-128420714D01*
X106600476Y-127468333D02*
X106505238Y-127420714D01*
X106314761Y-127420714D01*
X106219523Y-127468333D01*
X106171904Y-127515952D01*
X106124285Y-127611190D01*
X106124285Y-127896904D01*
X106171904Y-127992142D01*
X106219523Y-128039761D01*
X106314761Y-128087380D01*
X106505238Y-128087380D01*
X106600476Y-128039761D01*
X105267142Y-128087380D02*
X105267142Y-127563571D01*
X105314761Y-127468333D01*
X105410000Y-127420714D01*
X105600476Y-127420714D01*
X105695714Y-127468333D01*
X105267142Y-128039761D02*
X105362380Y-128087380D01*
X105600476Y-128087380D01*
X105695714Y-128039761D01*
X105743333Y-127944523D01*
X105743333Y-127849285D01*
X105695714Y-127754047D01*
X105600476Y-127706428D01*
X105362380Y-127706428D01*
X105267142Y-127658809D01*
X104362380Y-128039761D02*
X104457619Y-128087380D01*
X104648095Y-128087380D01*
X104743333Y-128039761D01*
X104790952Y-127992142D01*
X104838571Y-127896904D01*
X104838571Y-127611190D01*
X104790952Y-127515952D01*
X104743333Y-127468333D01*
X104648095Y-127420714D01*
X104457619Y-127420714D01*
X104362380Y-127468333D01*
X103933809Y-128087380D02*
X103933809Y-127087380D01*
X103838571Y-127706428D02*
X103552857Y-128087380D01*
X103552857Y-127420714D02*
X103933809Y-127801666D01*
X102457619Y-127420714D02*
X102219523Y-128087380D01*
X101981428Y-127420714D01*
X101076666Y-128087380D02*
X101648095Y-128087380D01*
X101362380Y-128087380D02*
X101362380Y-127087380D01*
X101457619Y-127230238D01*
X101552857Y-127325476D01*
X101648095Y-127373095D01*
X100648095Y-127992142D02*
X100600476Y-128039761D01*
X100648095Y-128087380D01*
X100695714Y-128039761D01*
X100648095Y-127992142D01*
X100648095Y-128087380D01*
X99981428Y-127087380D02*
X99886190Y-127087380D01*
X99790952Y-127135000D01*
X99743333Y-127182619D01*
X99695714Y-127277857D01*
X99648095Y-127468333D01*
X99648095Y-127706428D01*
X99695714Y-127896904D01*
X99743333Y-127992142D01*
X99790952Y-128039761D01*
X99886190Y-128087380D01*
X99981428Y-128087380D01*
X100076666Y-128039761D01*
X100124285Y-127992142D01*
X100171904Y-127896904D01*
X100219523Y-127706428D01*
X100219523Y-127468333D01*
X100171904Y-127277857D01*
X100124285Y-127182619D01*
X100076666Y-127135000D01*
X99981428Y-127087380D01*
D12*
X113791904Y-48060880D02*
X113791904Y-48870404D01*
X113744285Y-48965642D01*
X113696666Y-49013261D01*
X113601428Y-49060880D01*
X113410952Y-49060880D01*
X113315714Y-49013261D01*
X113268095Y-48965642D01*
X113220476Y-48870404D01*
X113220476Y-48060880D01*
X112791904Y-48156119D02*
X112744285Y-48108500D01*
X112649047Y-48060880D01*
X112410952Y-48060880D01*
X112315714Y-48108500D01*
X112268095Y-48156119D01*
X112220476Y-48251357D01*
X112220476Y-48346595D01*
X112268095Y-48489452D01*
X112839523Y-49060880D01*
X112220476Y-49060880D01*
X106084285Y-55420880D02*
X105465238Y-55420880D01*
X105798571Y-55801833D01*
X105655714Y-55801833D01*
X105560476Y-55849452D01*
X105512857Y-55897071D01*
X105465238Y-55992309D01*
X105465238Y-56230404D01*
X105512857Y-56325642D01*
X105560476Y-56373261D01*
X105655714Y-56420880D01*
X105941428Y-56420880D01*
X106036666Y-56373261D01*
X106084285Y-56325642D01*
X104846190Y-55420880D02*
X104750952Y-55420880D01*
X104655714Y-55468500D01*
X104608095Y-55516119D01*
X104560476Y-55611357D01*
X104512857Y-55801833D01*
X104512857Y-56039928D01*
X104560476Y-56230404D01*
X104608095Y-56325642D01*
X104655714Y-56373261D01*
X104750952Y-56420880D01*
X104846190Y-56420880D01*
X104941428Y-56373261D01*
X104989047Y-56325642D01*
X105036666Y-56230404D01*
X105084285Y-56039928D01*
X105084285Y-55801833D01*
X105036666Y-55611357D01*
X104989047Y-55516119D01*
X104941428Y-55468500D01*
X104846190Y-55420880D01*
X103560476Y-56420880D02*
X104131904Y-56420880D01*
X103846190Y-56420880D02*
X103846190Y-55420880D01*
X103941428Y-55563738D01*
X104036666Y-55658976D01*
X104131904Y-55706595D01*
X102941428Y-55420880D02*
X102846190Y-55420880D01*
X102750952Y-55468500D01*
X102703333Y-55516119D01*
X102655714Y-55611357D01*
X102608095Y-55801833D01*
X102608095Y-56039928D01*
X102655714Y-56230404D01*
X102703333Y-56325642D01*
X102750952Y-56373261D01*
X102846190Y-56420880D01*
X102941428Y-56420880D01*
X103036666Y-56373261D01*
X103084285Y-56325642D01*
X103131904Y-56230404D01*
X103179523Y-56039928D01*
X103179523Y-55801833D01*
X103131904Y-55611357D01*
X103084285Y-55516119D01*
X103036666Y-55468500D01*
X102941428Y-55420880D01*
X101655714Y-56420880D02*
X102227142Y-56420880D01*
X101941428Y-56420880D02*
X101941428Y-55420880D01*
X102036666Y-55563738D01*
X102131904Y-55658976D01*
X102227142Y-55706595D01*
X100893809Y-55897071D02*
X100750952Y-55944690D01*
X100703333Y-55992309D01*
X100655714Y-56087547D01*
X100655714Y-56230404D01*
X100703333Y-56325642D01*
X100750952Y-56373261D01*
X100846190Y-56420880D01*
X101227142Y-56420880D01*
X101227142Y-55420880D01*
X100893809Y-55420880D01*
X100798571Y-55468500D01*
X100750952Y-55516119D01*
X100703333Y-55611357D01*
X100703333Y-55706595D01*
X100750952Y-55801833D01*
X100798571Y-55849452D01*
X100893809Y-55897071D01*
X101227142Y-55897071D01*
X100274761Y-56373261D02*
X100131904Y-56420880D01*
X99893809Y-56420880D01*
X99798571Y-56373261D01*
X99750952Y-56325642D01*
X99703333Y-56230404D01*
X99703333Y-56135166D01*
X99750952Y-56039928D01*
X99798571Y-55992309D01*
X99893809Y-55944690D01*
X100084285Y-55897071D01*
X100179523Y-55849452D01*
X100227142Y-55801833D01*
X100274761Y-55706595D01*
X100274761Y-55611357D01*
X100227142Y-55516119D01*
X100179523Y-55468500D01*
X100084285Y-55420880D01*
X99846190Y-55420880D01*
X99703333Y-55468500D01*
X106084285Y-74256119D02*
X106036666Y-74208500D01*
X105941428Y-74160880D01*
X105703333Y-74160880D01*
X105608095Y-74208500D01*
X105560476Y-74256119D01*
X105512857Y-74351357D01*
X105512857Y-74446595D01*
X105560476Y-74589452D01*
X106131904Y-75160880D01*
X105512857Y-75160880D01*
X105179523Y-74160880D02*
X104560476Y-74160880D01*
X104893809Y-74541833D01*
X104750952Y-74541833D01*
X104655714Y-74589452D01*
X104608095Y-74637071D01*
X104560476Y-74732309D01*
X104560476Y-74970404D01*
X104608095Y-75065642D01*
X104655714Y-75113261D01*
X104750952Y-75160880D01*
X105036666Y-75160880D01*
X105131904Y-75113261D01*
X105179523Y-75065642D01*
X103941428Y-74160880D02*
X103846190Y-74160880D01*
X103750952Y-74208500D01*
X103703333Y-74256119D01*
X103655714Y-74351357D01*
X103608095Y-74541833D01*
X103608095Y-74779928D01*
X103655714Y-74970404D01*
X103703333Y-75065642D01*
X103750952Y-75113261D01*
X103846190Y-75160880D01*
X103941428Y-75160880D01*
X104036666Y-75113261D01*
X104084285Y-75065642D01*
X104131904Y-74970404D01*
X104179523Y-74779928D01*
X104179523Y-74541833D01*
X104131904Y-74351357D01*
X104084285Y-74256119D01*
X104036666Y-74208500D01*
X103941428Y-74160880D01*
X102655714Y-75160880D02*
X103227142Y-75160880D01*
X102941428Y-75160880D02*
X102941428Y-74160880D01*
X103036666Y-74303738D01*
X103131904Y-74398976D01*
X103227142Y-74446595D01*
X101703333Y-75160880D02*
X102274761Y-75160880D01*
X101989047Y-75160880D02*
X101989047Y-74160880D01*
X102084285Y-74303738D01*
X102179523Y-74398976D01*
X102274761Y-74446595D01*
X100941428Y-74637071D02*
X100798571Y-74684690D01*
X100750952Y-74732309D01*
X100703333Y-74827547D01*
X100703333Y-74970404D01*
X100750952Y-75065642D01*
X100798571Y-75113261D01*
X100893809Y-75160880D01*
X101274761Y-75160880D01*
X101274761Y-74160880D01*
X100941428Y-74160880D01*
X100846190Y-74208500D01*
X100798571Y-74256119D01*
X100750952Y-74351357D01*
X100750952Y-74446595D01*
X100798571Y-74541833D01*
X100846190Y-74589452D01*
X100941428Y-74637071D01*
X101274761Y-74637071D01*
X100274761Y-75160880D02*
X100274761Y-74160880D01*
X100274761Y-74637071D02*
X99703333Y-74637071D01*
X99703333Y-75160880D02*
X99703333Y-74160880D01*
X105512857Y-87160880D02*
X106084285Y-87160880D01*
X105798571Y-87160880D02*
X105798571Y-86160880D01*
X105893809Y-86303738D01*
X105989047Y-86398976D01*
X106084285Y-86446595D01*
X104941428Y-86589452D02*
X105036666Y-86541833D01*
X105084285Y-86494214D01*
X105131904Y-86398976D01*
X105131904Y-86351357D01*
X105084285Y-86256119D01*
X105036666Y-86208500D01*
X104941428Y-86160880D01*
X104750952Y-86160880D01*
X104655714Y-86208500D01*
X104608095Y-86256119D01*
X104560476Y-86351357D01*
X104560476Y-86398976D01*
X104608095Y-86494214D01*
X104655714Y-86541833D01*
X104750952Y-86589452D01*
X104941428Y-86589452D01*
X105036666Y-86637071D01*
X105084285Y-86684690D01*
X105131904Y-86779928D01*
X105131904Y-86970404D01*
X105084285Y-87065642D01*
X105036666Y-87113261D01*
X104941428Y-87160880D01*
X104750952Y-87160880D01*
X104655714Y-87113261D01*
X104608095Y-87065642D01*
X104560476Y-86970404D01*
X104560476Y-86779928D01*
X104608095Y-86684690D01*
X104655714Y-86637071D01*
X104750952Y-86589452D01*
X103941428Y-86160880D02*
X103846190Y-86160880D01*
X103750952Y-86208500D01*
X103703333Y-86256119D01*
X103655714Y-86351357D01*
X103608095Y-86541833D01*
X103608095Y-86779928D01*
X103655714Y-86970404D01*
X103703333Y-87065642D01*
X103750952Y-87113261D01*
X103846190Y-87160880D01*
X103941428Y-87160880D01*
X104036666Y-87113261D01*
X104084285Y-87065642D01*
X104131904Y-86970404D01*
X104179523Y-86779928D01*
X104179523Y-86541833D01*
X104131904Y-86351357D01*
X104084285Y-86256119D01*
X104036666Y-86208500D01*
X103941428Y-86160880D01*
X102655714Y-87160880D02*
X103227142Y-87160880D01*
X102941428Y-87160880D02*
X102941428Y-86160880D01*
X103036666Y-86303738D01*
X103131904Y-86398976D01*
X103227142Y-86446595D01*
X101703333Y-87160880D02*
X102274761Y-87160880D01*
X101989047Y-87160880D02*
X101989047Y-86160880D01*
X102084285Y-86303738D01*
X102179523Y-86398976D01*
X102274761Y-86446595D01*
X100941428Y-86637071D02*
X100798571Y-86684690D01*
X100750952Y-86732309D01*
X100703333Y-86827547D01*
X100703333Y-86970404D01*
X100750952Y-87065642D01*
X100798571Y-87113261D01*
X100893809Y-87160880D01*
X101274761Y-87160880D01*
X101274761Y-86160880D01*
X100941428Y-86160880D01*
X100846190Y-86208500D01*
X100798571Y-86256119D01*
X100750952Y-86351357D01*
X100750952Y-86446595D01*
X100798571Y-86541833D01*
X100846190Y-86589452D01*
X100941428Y-86637071D01*
X101274761Y-86637071D01*
X100274761Y-87160880D02*
X100274761Y-86160880D01*
X100274761Y-86637071D02*
X99703333Y-86637071D01*
X99703333Y-87160880D02*
X99703333Y-86160880D01*
X105465238Y-94780880D02*
X106036666Y-94780880D01*
X105750952Y-94780880D02*
X105750952Y-93780880D01*
X105846190Y-93923738D01*
X105941428Y-94018976D01*
X106036666Y-94066595D01*
X104560476Y-93780880D02*
X105036666Y-93780880D01*
X105084285Y-94257071D01*
X105036666Y-94209452D01*
X104941428Y-94161833D01*
X104703333Y-94161833D01*
X104608095Y-94209452D01*
X104560476Y-94257071D01*
X104512857Y-94352309D01*
X104512857Y-94590404D01*
X104560476Y-94685642D01*
X104608095Y-94733261D01*
X104703333Y-94780880D01*
X104941428Y-94780880D01*
X105036666Y-94733261D01*
X105084285Y-94685642D01*
X103560476Y-94780880D02*
X104131904Y-94780880D01*
X103846190Y-94780880D02*
X103846190Y-93780880D01*
X103941428Y-93923738D01*
X104036666Y-94018976D01*
X104131904Y-94066595D01*
X102941428Y-93780880D02*
X102846190Y-93780880D01*
X102750952Y-93828500D01*
X102703333Y-93876119D01*
X102655714Y-93971357D01*
X102608095Y-94161833D01*
X102608095Y-94399928D01*
X102655714Y-94590404D01*
X102703333Y-94685642D01*
X102750952Y-94733261D01*
X102846190Y-94780880D01*
X102941428Y-94780880D01*
X103036666Y-94733261D01*
X103084285Y-94685642D01*
X103131904Y-94590404D01*
X103179523Y-94399928D01*
X103179523Y-94161833D01*
X103131904Y-93971357D01*
X103084285Y-93876119D01*
X103036666Y-93828500D01*
X102941428Y-93780880D01*
X101655714Y-94780880D02*
X102227142Y-94780880D01*
X101941428Y-94780880D02*
X101941428Y-93780880D01*
X102036666Y-93923738D01*
X102131904Y-94018976D01*
X102227142Y-94066595D01*
X100893809Y-94257071D02*
X100750952Y-94304690D01*
X100703333Y-94352309D01*
X100655714Y-94447547D01*
X100655714Y-94590404D01*
X100703333Y-94685642D01*
X100750952Y-94733261D01*
X100846190Y-94780880D01*
X101227142Y-94780880D01*
X101227142Y-93780880D01*
X100893809Y-93780880D01*
X100798571Y-93828500D01*
X100750952Y-93876119D01*
X100703333Y-93971357D01*
X100703333Y-94066595D01*
X100750952Y-94161833D01*
X100798571Y-94209452D01*
X100893809Y-94257071D01*
X101227142Y-94257071D01*
X100274761Y-94733261D02*
X100131904Y-94780880D01*
X99893809Y-94780880D01*
X99798571Y-94733261D01*
X99750952Y-94685642D01*
X99703333Y-94590404D01*
X99703333Y-94495166D01*
X99750952Y-94399928D01*
X99798571Y-94352309D01*
X99893809Y-94304690D01*
X100084285Y-94257071D01*
X100179523Y-94209452D01*
X100227142Y-94161833D01*
X100274761Y-94066595D01*
X100274761Y-93971357D01*
X100227142Y-93876119D01*
X100179523Y-93828500D01*
X100084285Y-93780880D01*
X99846190Y-93780880D01*
X99703333Y-93828500D01*
X105765598Y-111204375D02*
X103985034Y-111201091D01*
D13*
X111710000Y-134308500D02*
X99110000Y-134308500D01*
X99110000Y-70548500D02*
X111710000Y-70548500D01*
D12*
X106534001Y-113823348D02*
X104753437Y-113820064D01*
D13*
X99110000Y-90548500D02*
X111710000Y-90548500D01*
X99110000Y-82548500D02*
X111710000Y-82548500D01*
D12*
X105057480Y-115993739D02*
X104490115Y-114182655D01*
X104289077Y-113374766D02*
X103721712Y-111563682D01*
X107481084Y-115948648D02*
X106913719Y-114137564D01*
X106712681Y-113329675D02*
X106145316Y-111518591D01*
D13*
X111710000Y-51808500D02*
X111710000Y-126428500D01*
X99110000Y-51808500D02*
X111710000Y-51808500D01*
D12*
X107196899Y-116387827D02*
X105416335Y-116384543D01*
D13*
X99110000Y-126428500D02*
X99110000Y-51808500D01*
D14*
X110590000Y-135058500D02*
G75*
G03*
X110590000Y-135058500I-100000J0D01*
G01*
D12*
X104005316Y-116598591D02*
G75*
G03*
X104005316Y-116598591I-400000J0D01*
G01*
%LPC*%
D15*
X100965000Y-111760000D03*
D16*
X100965000Y-114300000D03*
X100965000Y-116840000D03*
X100965000Y-119380000D03*
X100965000Y-121920000D03*
X100965000Y-124460000D03*
D15*
X109855000Y-124460000D03*
D16*
X109855000Y-121920000D03*
X109855000Y-119380000D03*
X109855000Y-116840000D03*
X109855000Y-114300000D03*
X109855000Y-111760000D03*
D17*
X110490000Y-132428500D03*
D18*
X107950000Y-132428500D03*
X105410000Y-132428500D03*
X102870000Y-132428500D03*
X100330000Y-132428500D03*
X100330000Y-84428500D03*
X100330000Y-72428500D03*
X100330000Y-92428500D03*
X100330000Y-53688500D03*
X102870000Y-84428500D03*
X102870000Y-53688500D03*
X102870000Y-72428500D03*
X102870000Y-92428500D03*
X105410000Y-84428500D03*
X105410000Y-53688500D03*
X105410000Y-72428500D03*
X105410000Y-92428500D03*
X107950000Y-53688500D03*
X107950000Y-92428500D03*
X107950000Y-72428500D03*
X107950000Y-84428500D03*
X110490000Y-84428500D03*
X110490000Y-92428500D03*
X110490000Y-72428500D03*
X110490000Y-53688500D03*
M02*
