%TF.GenerationSoftware,KiCad,Pcbnew,6.0.11*%
%TF.CreationDate,2024-07-26T21:25:56+01:00*%
%TF.ProjectId,7Backpack,37426163-6b70-4616-936b-2e6b69636164,rev?*%
%TF.SameCoordinates,Original*%
%TF.FileFunction,Legend,Top*%
%TF.FilePolarity,Positive*%
%FSLAX46Y46*%
G04 Gerber Fmt 4.6, Leading zero omitted, Abs format (unit mm)*
G04 Created by KiCad (PCBNEW 6.0.11) date 2024-07-26 21:25:56*
%MOMM*%
%LPD*%
G01*
G04 APERTURE LIST*
G04 Aperture macros list*
%AMRoundRect*
0 Rectangle with rounded corners*
0 $1 Rounding radius*
0 $2 $3 $4 $5 $6 $7 $8 $9 X,Y pos of 4 corners*
0 Add a 4 corners polygon primitive as box body*
4,1,4,$2,$3,$4,$5,$6,$7,$8,$9,$2,$3,0*
0 Add four circle primitives for the rounded corners*
1,1,$1+$1,$2,$3*
1,1,$1+$1,$4,$5*
1,1,$1+$1,$6,$7*
1,1,$1+$1,$8,$9*
0 Add four rect primitives between the rounded corners*
20,1,$1+$1,$2,$3,$4,$5,0*
20,1,$1+$1,$4,$5,$6,$7,0*
20,1,$1+$1,$6,$7,$8,$9,0*
20,1,$1+$1,$8,$9,$2,$3,0*%
G04 Aperture macros list end*
%ADD10C,0.150000*%
%ADD11C,0.120000*%
%ADD12C,0.152400*%
%ADD13C,0.100000*%
%ADD14RoundRect,0.200000X-0.275000X0.200000X-0.275000X-0.200000X0.275000X-0.200000X0.275000X0.200000X0*%
%ADD15RoundRect,0.200000X0.275000X-0.200000X0.275000X0.200000X-0.275000X0.200000X-0.275000X-0.200000X0*%
%ADD16R,1.700000X1.700000*%
%ADD17O,1.700000X1.700000*%
%ADD18RoundRect,0.225000X0.250000X-0.225000X0.250000X0.225000X-0.250000X0.225000X-0.250000X-0.225000X0*%
%ADD19RoundRect,0.102000X-0.736600X-0.177800X0.736600X-0.177800X0.736600X0.177800X-0.736600X0.177800X0*%
%ADD20RoundRect,0.102000X0.609000X-0.609000X0.609000X0.609000X-0.609000X0.609000X-0.609000X-0.609000X0*%
%ADD21C,1.422000*%
G04 APERTURE END LIST*
D10*
X103886190Y-113482380D02*
X103410000Y-113482380D01*
X103410000Y-112482380D01*
X104171904Y-113196666D02*
X104648095Y-113196666D01*
X104076666Y-113482380D02*
X104410000Y-112482380D01*
X104743333Y-113482380D01*
X104933809Y-112482380D02*
X105505238Y-112482380D01*
X105219523Y-113482380D02*
X105219523Y-112482380D01*
X106410000Y-113387142D02*
X106362380Y-113434761D01*
X106219523Y-113482380D01*
X106124285Y-113482380D01*
X105981428Y-113434761D01*
X105886190Y-113339523D01*
X105838571Y-113244285D01*
X105790952Y-113053809D01*
X105790952Y-112910952D01*
X105838571Y-112720476D01*
X105886190Y-112625238D01*
X105981428Y-112530000D01*
X106124285Y-112482380D01*
X106219523Y-112482380D01*
X106362380Y-112530000D01*
X106410000Y-112577619D01*
X106838571Y-113482380D02*
X106838571Y-112482380D01*
X106838571Y-112958571D02*
X107410000Y-112958571D01*
X107410000Y-113482380D02*
X107410000Y-112482380D01*
X103790952Y-115927142D02*
X103743333Y-115974761D01*
X103600476Y-116022380D01*
X103505238Y-116022380D01*
X103362380Y-115974761D01*
X103267142Y-115879523D01*
X103219523Y-115784285D01*
X103171904Y-115593809D01*
X103171904Y-115450952D01*
X103219523Y-115260476D01*
X103267142Y-115165238D01*
X103362380Y-115070000D01*
X103505238Y-115022380D01*
X103600476Y-115022380D01*
X103743333Y-115070000D01*
X103790952Y-115117619D01*
X104695714Y-116022380D02*
X104219523Y-116022380D01*
X104219523Y-115022380D01*
X105219523Y-115022380D02*
X105410000Y-115022380D01*
X105505238Y-115070000D01*
X105600476Y-115165238D01*
X105648095Y-115355714D01*
X105648095Y-115689047D01*
X105600476Y-115879523D01*
X105505238Y-115974761D01*
X105410000Y-116022380D01*
X105219523Y-116022380D01*
X105124285Y-115974761D01*
X105029047Y-115879523D01*
X104981428Y-115689047D01*
X104981428Y-115355714D01*
X105029047Y-115165238D01*
X105124285Y-115070000D01*
X105219523Y-115022380D01*
X106648095Y-115927142D02*
X106600476Y-115974761D01*
X106457619Y-116022380D01*
X106362380Y-116022380D01*
X106219523Y-115974761D01*
X106124285Y-115879523D01*
X106076666Y-115784285D01*
X106029047Y-115593809D01*
X106029047Y-115450952D01*
X106076666Y-115260476D01*
X106124285Y-115165238D01*
X106219523Y-115070000D01*
X106362380Y-115022380D01*
X106457619Y-115022380D01*
X106600476Y-115070000D01*
X106648095Y-115117619D01*
X107076666Y-116022380D02*
X107076666Y-115022380D01*
X107648095Y-116022380D02*
X107219523Y-115450952D01*
X107648095Y-115022380D02*
X107076666Y-115593809D01*
X104076666Y-122642380D02*
X104410000Y-123642380D01*
X104743333Y-122642380D01*
X105648095Y-123547142D02*
X105600476Y-123594761D01*
X105457619Y-123642380D01*
X105362380Y-123642380D01*
X105219523Y-123594761D01*
X105124285Y-123499523D01*
X105076666Y-123404285D01*
X105029047Y-123213809D01*
X105029047Y-123070952D01*
X105076666Y-122880476D01*
X105124285Y-122785238D01*
X105219523Y-122690000D01*
X105362380Y-122642380D01*
X105457619Y-122642380D01*
X105600476Y-122690000D01*
X105648095Y-122737619D01*
X106648095Y-123547142D02*
X106600476Y-123594761D01*
X106457619Y-123642380D01*
X106362380Y-123642380D01*
X106219523Y-123594761D01*
X106124285Y-123499523D01*
X106076666Y-123404285D01*
X106029047Y-123213809D01*
X106029047Y-123070952D01*
X106076666Y-122880476D01*
X106124285Y-122785238D01*
X106219523Y-122690000D01*
X106362380Y-122642380D01*
X106457619Y-122642380D01*
X106600476Y-122690000D01*
X106648095Y-122737619D01*
X102981190Y-118562380D02*
X102981190Y-117562380D01*
X103457380Y-118562380D02*
X103457380Y-117562380D01*
X104028809Y-118562380D01*
X104028809Y-117562380D01*
X105680000Y-117562380D02*
X105870476Y-117562380D01*
X105965714Y-117610000D01*
X106060952Y-117705238D01*
X106108571Y-117895714D01*
X106108571Y-118229047D01*
X106060952Y-118419523D01*
X105965714Y-118514761D01*
X105870476Y-118562380D01*
X105680000Y-118562380D01*
X105584761Y-118514761D01*
X105489523Y-118419523D01*
X105441904Y-118229047D01*
X105441904Y-117895714D01*
X105489523Y-117705238D01*
X105584761Y-117610000D01*
X105680000Y-117562380D01*
X106537142Y-117562380D02*
X106537142Y-118371904D01*
X106584761Y-118467142D01*
X106632380Y-118514761D01*
X106727619Y-118562380D01*
X106918095Y-118562380D01*
X107013333Y-118514761D01*
X107060952Y-118467142D01*
X107108571Y-118371904D01*
X107108571Y-117562380D01*
X107441904Y-117562380D02*
X108013333Y-117562380D01*
X107727619Y-118562380D02*
X107727619Y-117562380D01*
X104124285Y-120721428D02*
X104886190Y-120721428D01*
X104505238Y-121102380D02*
X104505238Y-120340476D01*
X105838571Y-120102380D02*
X105362380Y-120102380D01*
X105314761Y-120578571D01*
X105362380Y-120530952D01*
X105457619Y-120483333D01*
X105695714Y-120483333D01*
X105790952Y-120530952D01*
X105838571Y-120578571D01*
X105886190Y-120673809D01*
X105886190Y-120911904D01*
X105838571Y-121007142D01*
X105790952Y-121054761D01*
X105695714Y-121102380D01*
X105457619Y-121102380D01*
X105362380Y-121054761D01*
X105314761Y-121007142D01*
X106171904Y-120102380D02*
X106505238Y-121102380D01*
X106838571Y-120102380D01*
X104648095Y-109990000D02*
X104552857Y-109942380D01*
X104410000Y-109942380D01*
X104267142Y-109990000D01*
X104171904Y-110085238D01*
X104124285Y-110180476D01*
X104076666Y-110370952D01*
X104076666Y-110513809D01*
X104124285Y-110704285D01*
X104171904Y-110799523D01*
X104267142Y-110894761D01*
X104410000Y-110942380D01*
X104505238Y-110942380D01*
X104648095Y-110894761D01*
X104695714Y-110847142D01*
X104695714Y-110513809D01*
X104505238Y-110513809D01*
X105124285Y-110942380D02*
X105124285Y-109942380D01*
X105695714Y-110942380D01*
X105695714Y-109942380D01*
X106171904Y-110942380D02*
X106171904Y-109942380D01*
X106410000Y-109942380D01*
X106552857Y-109990000D01*
X106648095Y-110085238D01*
X106695714Y-110180476D01*
X106743333Y-110370952D01*
X106743333Y-110513809D01*
X106695714Y-110704285D01*
X106648095Y-110799523D01*
X106552857Y-110894761D01*
X106410000Y-110942380D01*
X106171904Y-110942380D01*
%TO.C,R4*%
X101736002Y-128419769D02*
X101259812Y-128753103D01*
X101736002Y-128991198D02*
X100736002Y-128991198D01*
X100736002Y-128610245D01*
X100783622Y-128515007D01*
X100831241Y-128467388D01*
X100926479Y-128419769D01*
X101069336Y-128419769D01*
X101164574Y-128467388D01*
X101212193Y-128515007D01*
X101259812Y-128610245D01*
X101259812Y-128991198D01*
X101069336Y-127562626D02*
X101736002Y-127562626D01*
X100688383Y-127800722D02*
X101402669Y-128038817D01*
X101402669Y-127419769D01*
%TO.C,R9*%
X104853160Y-94198293D02*
X104376970Y-94531627D01*
X104853160Y-94769722D02*
X103853160Y-94769722D01*
X103853160Y-94388769D01*
X103900780Y-94293531D01*
X103948399Y-94245912D01*
X104043637Y-94198293D01*
X104186494Y-94198293D01*
X104281732Y-94245912D01*
X104329351Y-94293531D01*
X104376970Y-94388769D01*
X104376970Y-94769722D01*
X104853160Y-93722103D02*
X104853160Y-93531627D01*
X104805541Y-93436388D01*
X104757922Y-93388769D01*
X104615065Y-93293531D01*
X104424589Y-93245912D01*
X104043637Y-93245912D01*
X103948399Y-93293531D01*
X103900780Y-93341150D01*
X103853160Y-93436388D01*
X103853160Y-93626865D01*
X103900780Y-93722103D01*
X103948399Y-93769722D01*
X104043637Y-93817341D01*
X104281732Y-93817341D01*
X104376970Y-93769722D01*
X104424589Y-93722103D01*
X104472208Y-93626865D01*
X104472208Y-93436388D01*
X104424589Y-93341150D01*
X104376970Y-93293531D01*
X104281732Y-93245912D01*
%TO.C,R8*%
X110002983Y-94159572D02*
X109526793Y-94492906D01*
X110002983Y-94731001D02*
X109002983Y-94731001D01*
X109002983Y-94350048D01*
X109050603Y-94254810D01*
X109098222Y-94207191D01*
X109193460Y-94159572D01*
X109336317Y-94159572D01*
X109431555Y-94207191D01*
X109479174Y-94254810D01*
X109526793Y-94350048D01*
X109526793Y-94731001D01*
X109431555Y-93588144D02*
X109383936Y-93683382D01*
X109336317Y-93731001D01*
X109241079Y-93778620D01*
X109193460Y-93778620D01*
X109098222Y-93731001D01*
X109050603Y-93683382D01*
X109002983Y-93588144D01*
X109002983Y-93397667D01*
X109050603Y-93302429D01*
X109098222Y-93254810D01*
X109193460Y-93207191D01*
X109241079Y-93207191D01*
X109336317Y-93254810D01*
X109383936Y-93302429D01*
X109431555Y-93397667D01*
X109431555Y-93588144D01*
X109479174Y-93683382D01*
X109526793Y-93731001D01*
X109622031Y-93778620D01*
X109812507Y-93778620D01*
X109907745Y-93731001D01*
X109955364Y-93683382D01*
X110002983Y-93588144D01*
X110002983Y-93397667D01*
X109955364Y-93302429D01*
X109907745Y-93254810D01*
X109812507Y-93207191D01*
X109622031Y-93207191D01*
X109526793Y-93254810D01*
X109479174Y-93302429D01*
X109431555Y-93397667D01*
%TO.C,R7*%
X107460339Y-94185386D02*
X106984149Y-94518720D01*
X107460339Y-94756815D02*
X106460339Y-94756815D01*
X106460339Y-94375862D01*
X106507959Y-94280624D01*
X106555578Y-94233005D01*
X106650816Y-94185386D01*
X106793673Y-94185386D01*
X106888911Y-94233005D01*
X106936530Y-94280624D01*
X106984149Y-94375862D01*
X106984149Y-94756815D01*
X106460339Y-93852053D02*
X106460339Y-93185386D01*
X107460339Y-93613958D01*
%TO.C,J1*%
X100631666Y-124940764D02*
X100631666Y-125655050D01*
X100584047Y-125797907D01*
X100488809Y-125893145D01*
X100345952Y-125940764D01*
X100250714Y-125940764D01*
X101631666Y-125940764D02*
X101060238Y-125940764D01*
X101345952Y-125940764D02*
X101345952Y-124940764D01*
X101250714Y-125083622D01*
X101155476Y-125178860D01*
X101060238Y-125226479D01*
%TO.C,C1*%
X99892142Y-100637266D02*
X99939761Y-100684885D01*
X99987380Y-100827742D01*
X99987380Y-100922980D01*
X99939761Y-101065838D01*
X99844523Y-101161076D01*
X99749285Y-101208695D01*
X99558809Y-101256314D01*
X99415952Y-101256314D01*
X99225476Y-101208695D01*
X99130238Y-101161076D01*
X99035000Y-101065838D01*
X98987380Y-100922980D01*
X98987380Y-100827742D01*
X99035000Y-100684885D01*
X99082619Y-100637266D01*
X99987380Y-99684885D02*
X99987380Y-100256314D01*
X99987380Y-99970600D02*
X98987380Y-99970600D01*
X99130238Y-100065838D01*
X99225476Y-100161076D01*
X99273095Y-100256314D01*
%TO.C,R5*%
X105884358Y-125743410D02*
X105408168Y-126076744D01*
X105884358Y-126314839D02*
X104884358Y-126314839D01*
X104884358Y-125933886D01*
X104931978Y-125838648D01*
X104979597Y-125791029D01*
X105074835Y-125743410D01*
X105217692Y-125743410D01*
X105312930Y-125791029D01*
X105360549Y-125838648D01*
X105408168Y-125933886D01*
X105408168Y-126314839D01*
X104884358Y-124838648D02*
X104884358Y-125314839D01*
X105360549Y-125362458D01*
X105312930Y-125314839D01*
X105265311Y-125219601D01*
X105265311Y-124981505D01*
X105312930Y-124886267D01*
X105360549Y-124838648D01*
X105455787Y-124791029D01*
X105693882Y-124791029D01*
X105789120Y-124838648D01*
X105836739Y-124886267D01*
X105884358Y-124981505D01*
X105884358Y-125219601D01*
X105836739Y-125314839D01*
X105789120Y-125362458D01*
%TO.C,U1*%
X105427842Y-105780011D02*
X105427842Y-107110429D01*
X105506102Y-107266948D01*
X105584362Y-107345208D01*
X105740881Y-107423468D01*
X106053921Y-107423468D01*
X106210440Y-107345208D01*
X106288700Y-107266948D01*
X106366960Y-107110429D01*
X106366960Y-105780011D01*
X108010417Y-107423468D02*
X107071299Y-107423468D01*
X107540858Y-107423468D02*
X107540858Y-105780011D01*
X107384338Y-106014791D01*
X107227819Y-106171310D01*
X107071299Y-106249570D01*
%TO.C,R1*%
X99987380Y-104306666D02*
X99511190Y-104640000D01*
X99987380Y-104878095D02*
X98987380Y-104878095D01*
X98987380Y-104497142D01*
X99035000Y-104401904D01*
X99082619Y-104354285D01*
X99177857Y-104306666D01*
X99320714Y-104306666D01*
X99415952Y-104354285D01*
X99463571Y-104401904D01*
X99511190Y-104497142D01*
X99511190Y-104878095D01*
X99987380Y-103354285D02*
X99987380Y-103925714D01*
X99987380Y-103640000D02*
X98987380Y-103640000D01*
X99130238Y-103735238D01*
X99225476Y-103830476D01*
X99273095Y-103925714D01*
%TO.C,R6*%
X109832380Y-128436666D02*
X109356190Y-128770000D01*
X109832380Y-129008095D02*
X108832380Y-129008095D01*
X108832380Y-128627142D01*
X108880000Y-128531904D01*
X108927619Y-128484285D01*
X109022857Y-128436666D01*
X109165714Y-128436666D01*
X109260952Y-128484285D01*
X109308571Y-128531904D01*
X109356190Y-128627142D01*
X109356190Y-129008095D01*
X108832380Y-127579523D02*
X108832380Y-127770000D01*
X108880000Y-127865238D01*
X108927619Y-127912857D01*
X109070476Y-128008095D01*
X109260952Y-128055714D01*
X109641904Y-128055714D01*
X109737142Y-128008095D01*
X109784761Y-127960476D01*
X109832380Y-127865238D01*
X109832380Y-127674761D01*
X109784761Y-127579523D01*
X109737142Y-127531904D01*
X109641904Y-127484285D01*
X109403809Y-127484285D01*
X109308571Y-127531904D01*
X109260952Y-127579523D01*
X109213333Y-127674761D01*
X109213333Y-127865238D01*
X109260952Y-127960476D01*
X109308571Y-128008095D01*
X109403809Y-128055714D01*
%TO.C,R3*%
X99793685Y-94211200D02*
X99317495Y-94544534D01*
X99793685Y-94782629D02*
X98793685Y-94782629D01*
X98793685Y-94401676D01*
X98841305Y-94306438D01*
X98888924Y-94258819D01*
X98984162Y-94211200D01*
X99127019Y-94211200D01*
X99222257Y-94258819D01*
X99269876Y-94306438D01*
X99317495Y-94401676D01*
X99317495Y-94782629D01*
X98793685Y-93877867D02*
X98793685Y-93258819D01*
X99174638Y-93592153D01*
X99174638Y-93449295D01*
X99222257Y-93354057D01*
X99269876Y-93306438D01*
X99365114Y-93258819D01*
X99603209Y-93258819D01*
X99698447Y-93306438D01*
X99746066Y-93354057D01*
X99793685Y-93449295D01*
X99793685Y-93735010D01*
X99746066Y-93830248D01*
X99698447Y-93877867D01*
%TO.C,R2*%
X102168541Y-94146666D02*
X101692351Y-94480000D01*
X102168541Y-94718095D02*
X101168541Y-94718095D01*
X101168541Y-94337142D01*
X101216161Y-94241904D01*
X101263780Y-94194285D01*
X101359018Y-94146666D01*
X101501875Y-94146666D01*
X101597113Y-94194285D01*
X101644732Y-94241904D01*
X101692351Y-94337142D01*
X101692351Y-94718095D01*
X101263780Y-93765714D02*
X101216161Y-93718095D01*
X101168541Y-93622857D01*
X101168541Y-93384761D01*
X101216161Y-93289523D01*
X101263780Y-93241904D01*
X101359018Y-93194285D01*
X101454256Y-93194285D01*
X101597113Y-93241904D01*
X102168541Y-93813333D01*
X102168541Y-93194285D01*
%TO.C,J2*%
X109521666Y-124972380D02*
X109521666Y-125686666D01*
X109474047Y-125829523D01*
X109378809Y-125924761D01*
X109235952Y-125972380D01*
X109140714Y-125972380D01*
X109950238Y-125067619D02*
X109997857Y-125020000D01*
X110093095Y-124972380D01*
X110331190Y-124972380D01*
X110426428Y-125020000D01*
X110474047Y-125067619D01*
X110521666Y-125162857D01*
X110521666Y-125258095D01*
X110474047Y-125400952D01*
X109902619Y-125972380D01*
X110521666Y-125972380D01*
D11*
%TO.C,R4*%
X103392500Y-128032742D02*
X103392500Y-128507258D01*
X102347500Y-128032742D02*
X102347500Y-128507258D01*
%TO.C,R9*%
X104887500Y-96757258D02*
X104887500Y-96282742D01*
X105932500Y-96757258D02*
X105932500Y-96282742D01*
%TO.C,R8*%
X109967500Y-96757258D02*
X109967500Y-96282742D01*
X111012500Y-96757258D02*
X111012500Y-96282742D01*
%TO.C,R7*%
X108472500Y-96757258D02*
X108472500Y-96282742D01*
X107427500Y-96757258D02*
X107427500Y-96282742D01*
%TO.C,J1*%
X99635000Y-111760000D02*
X102295000Y-111760000D01*
X99635000Y-109160000D02*
X100965000Y-109160000D01*
X99635000Y-111760000D02*
X99635000Y-124520000D01*
X102295000Y-111760000D02*
X102295000Y-124520000D01*
X99635000Y-124520000D02*
X102295000Y-124520000D01*
X99635000Y-110490000D02*
X99635000Y-109160000D01*
%TO.C,C1*%
X101475000Y-100611180D02*
X101475000Y-100330020D01*
X100455000Y-100611180D02*
X100455000Y-100330020D01*
%TO.C,R5*%
X105932500Y-128032742D02*
X105932500Y-128507258D01*
X104887500Y-128032742D02*
X104887500Y-128507258D01*
D12*
%TO.C,U1*%
X104800400Y-105410000D02*
X108559600Y-105410000D01*
X108559600Y-100330000D02*
X106984800Y-100330000D01*
X106375200Y-100330000D02*
X104800400Y-100330000D01*
X106984800Y-100330000D02*
X106375200Y-100330000D01*
D13*
X106375200Y-100330000D02*
G75*
G03*
X106984800Y-100330000I304800J0D01*
G01*
D11*
%TO.C,R1*%
X100442500Y-104377258D02*
X100442500Y-103902742D01*
X101487500Y-104377258D02*
X101487500Y-103902742D01*
%TO.C,R6*%
X107427500Y-128032742D02*
X107427500Y-128507258D01*
X108472500Y-128032742D02*
X108472500Y-128507258D01*
%TO.C,R3*%
X99807500Y-96757258D02*
X99807500Y-96282742D01*
X100852500Y-96757258D02*
X100852500Y-96282742D01*
%TO.C,R2*%
X102347500Y-96757258D02*
X102347500Y-96282742D01*
X103392500Y-96757258D02*
X103392500Y-96282742D01*
%TO.C,J2*%
X111185000Y-121920000D02*
X108525000Y-121920000D01*
X111185000Y-109160000D02*
X108525000Y-109160000D01*
X111185000Y-124520000D02*
X109855000Y-124520000D01*
X111185000Y-123190000D02*
X111185000Y-124520000D01*
X111185000Y-121920000D02*
X111185000Y-109160000D01*
X108525000Y-121920000D02*
X108525000Y-109160000D01*
%TD*%
%LPC*%
D14*
%TO.C,R4*%
X102870000Y-127445000D03*
X102870000Y-129095000D03*
%TD*%
D15*
%TO.C,R9*%
X105410000Y-97345000D03*
X105410000Y-95695000D03*
%TD*%
%TO.C,R8*%
X110490000Y-97345000D03*
X110490000Y-95695000D03*
%TD*%
%TO.C,R7*%
X107950000Y-97345000D03*
X107950000Y-95695000D03*
%TD*%
D16*
%TO.C,J1*%
X100965000Y-110490000D03*
D17*
X100965000Y-113030000D03*
X100965000Y-115570000D03*
X100965000Y-118110000D03*
X100965000Y-120650000D03*
X100965000Y-123190000D03*
%TD*%
D18*
%TO.C,C1*%
X100965000Y-101245600D03*
X100965000Y-99695600D03*
%TD*%
D14*
%TO.C,R5*%
X105410000Y-127445000D03*
X105410000Y-129095000D03*
%TD*%
D19*
%TO.C,U1*%
X103759000Y-100584000D03*
X103759000Y-101244400D03*
X103759000Y-101904800D03*
X103759000Y-102539800D03*
X103759000Y-103200200D03*
X103759000Y-103835200D03*
X103759000Y-104495600D03*
X103759000Y-105156000D03*
X109601000Y-105156000D03*
X109601000Y-104495600D03*
X109601000Y-103835200D03*
X109601000Y-103200200D03*
X109601000Y-102539800D03*
X109601000Y-101904800D03*
X109601000Y-101244400D03*
X109601000Y-100584000D03*
%TD*%
D15*
%TO.C,R1*%
X100965000Y-104965000D03*
X100965000Y-103315000D03*
%TD*%
D14*
%TO.C,R6*%
X107950000Y-127445000D03*
X107950000Y-129095000D03*
%TD*%
D15*
%TO.C,R3*%
X100330000Y-97345000D03*
X100330000Y-95695000D03*
%TD*%
%TO.C,R2*%
X102870000Y-97345000D03*
X102870000Y-95695000D03*
%TD*%
D16*
%TO.C,J2*%
X109855000Y-123190000D03*
D17*
X109855000Y-120650000D03*
X109855000Y-118110000D03*
X109855000Y-115570000D03*
X109855000Y-113030000D03*
X109855000Y-110490000D03*
%TD*%
D20*
%TO.C,U2*%
X110490000Y-132428500D03*
D21*
X107950000Y-132428500D03*
X105410000Y-132428500D03*
X102870000Y-132428500D03*
X100330000Y-132428500D03*
X100330000Y-84428500D03*
X100330000Y-72428500D03*
X100330000Y-92428500D03*
X100330000Y-53688500D03*
X102870000Y-84428500D03*
X102870000Y-53688500D03*
X102870000Y-72428500D03*
X102870000Y-92428500D03*
X105410000Y-84428500D03*
X105410000Y-53688500D03*
X105410000Y-72428500D03*
X105410000Y-92428500D03*
X107950000Y-53688500D03*
X107950000Y-92428500D03*
X107950000Y-72428500D03*
X107950000Y-84428500D03*
X110490000Y-84428500D03*
X110490000Y-92428500D03*
X110490000Y-72428500D03*
X110490000Y-53688500D03*
%TD*%
M02*
