G04 #@! TF.GenerationSoftware,KiCad,Pcbnew,6.0.11*
G04 #@! TF.CreationDate,2024-08-01T21:02:41+01:00*
G04 #@! TF.ProjectId,7Backpack,37426163-6b70-4616-936b-2e6b69636164,rev?*
G04 #@! TF.SameCoordinates,Original*
G04 #@! TF.FileFunction,Soldermask,Top*
G04 #@! TF.FilePolarity,Negative*
%FSLAX46Y46*%
G04 Gerber Fmt 4.6, Leading zero omitted, Abs format (unit mm)*
G04 Created by KiCad (PCBNEW 6.0.11) date 2024-08-01 21:02:41*
%MOMM*%
%LPD*%
G01*
G04 APERTURE LIST*
G04 Aperture macros list*
%AMRoundRect*
0 Rectangle with rounded corners*
0 $1 Rounding radius*
0 $2 $3 $4 $5 $6 $7 $8 $9 X,Y pos of 4 corners*
0 Add a 4 corners polygon primitive as box body*
4,1,4,$2,$3,$4,$5,$6,$7,$8,$9,$2,$3,0*
0 Add four circle primitives for the rounded corners*
1,1,$1+$1,$2,$3*
1,1,$1+$1,$4,$5*
1,1,$1+$1,$6,$7*
1,1,$1+$1,$8,$9*
0 Add four rect primitives between the rounded corners*
20,1,$1+$1,$2,$3,$4,$5,0*
20,1,$1+$1,$4,$5,$6,$7,0*
20,1,$1+$1,$6,$7,$8,$9,0*
20,1,$1+$1,$8,$9,$2,$3,0*%
G04 Aperture macros list end*
%ADD10RoundRect,0.200000X-0.275000X0.200000X-0.275000X-0.200000X0.275000X-0.200000X0.275000X0.200000X0*%
%ADD11RoundRect,0.200000X0.275000X-0.200000X0.275000X0.200000X-0.275000X0.200000X-0.275000X-0.200000X0*%
%ADD12R,1.700000X1.700000*%
%ADD13O,1.700000X1.700000*%
%ADD14RoundRect,0.225000X0.250000X-0.225000X0.250000X0.225000X-0.250000X0.225000X-0.250000X-0.225000X0*%
%ADD15RoundRect,0.177000X-0.910000X-0.225000X0.910000X-0.225000X0.910000X0.225000X-0.910000X0.225000X0*%
%ADD16RoundRect,0.102000X0.609000X-0.609000X0.609000X0.609000X-0.609000X0.609000X-0.609000X-0.609000X0*%
%ADD17C,1.422000*%
G04 APERTURE END LIST*
D10*
X102870000Y-127445000D03*
X102870000Y-129095000D03*
D11*
X105410000Y-97345000D03*
X105410000Y-95695000D03*
X110490000Y-97345000D03*
X110490000Y-95695000D03*
X107950000Y-97345000D03*
X107950000Y-95695000D03*
D12*
X100965000Y-111760000D03*
D13*
X100965000Y-114300000D03*
X100965000Y-116840000D03*
X100965000Y-119380000D03*
X100965000Y-121920000D03*
X100965000Y-124460000D03*
D14*
X100584000Y-101613000D03*
X100584000Y-100063000D03*
D10*
X105410000Y-127445000D03*
X105410000Y-129095000D03*
D15*
X104140000Y-99822000D03*
X104140000Y-101092000D03*
X104140000Y-102362000D03*
X104140000Y-103632000D03*
X104140000Y-104902000D03*
X104140000Y-106172000D03*
X104140000Y-107442000D03*
X104140000Y-108712000D03*
X109090000Y-108712000D03*
X109090000Y-107442000D03*
X109090000Y-106172000D03*
X109090000Y-104902000D03*
X109090000Y-103632000D03*
X109090000Y-102362000D03*
X109090000Y-101092000D03*
X109090000Y-99822000D03*
D11*
X100584000Y-107251000D03*
X100584000Y-105601000D03*
D10*
X107950000Y-127445000D03*
X107950000Y-129095000D03*
D11*
X100330000Y-97345000D03*
X100330000Y-95695000D03*
X102870000Y-97345000D03*
X102870000Y-95695000D03*
D12*
X109855000Y-124460000D03*
D13*
X109855000Y-121920000D03*
X109855000Y-119380000D03*
X109855000Y-116840000D03*
X109855000Y-114300000D03*
X109855000Y-111760000D03*
D16*
X110490000Y-132428500D03*
D17*
X107950000Y-132428500D03*
X105410000Y-132428500D03*
X102870000Y-132428500D03*
X100330000Y-132428500D03*
X100330000Y-84428500D03*
X100330000Y-72428500D03*
X100330000Y-92428500D03*
X100330000Y-53688500D03*
X102870000Y-84428500D03*
X102870000Y-53688500D03*
X102870000Y-72428500D03*
X102870000Y-92428500D03*
X105410000Y-84428500D03*
X105410000Y-53688500D03*
X105410000Y-72428500D03*
X105410000Y-92428500D03*
X107950000Y-53688500D03*
X107950000Y-92428500D03*
X107950000Y-72428500D03*
X107950000Y-84428500D03*
X110490000Y-84428500D03*
X110490000Y-92428500D03*
X110490000Y-72428500D03*
X110490000Y-53688500D03*
M02*
